# File exported by Houdini 18.0.287 (www.sidefx.com)
# 112 points
# 408 vertices
# 102 primitives
# Bounds: [-1.16026604, -0.0480669998, -2.5] to [1.16265595, 0.633226991, 2.5]
g 
v 1.06152201 0.531980991 -1.86421001
v 1.06152201 0.633226991 -1.86421001
v 1.06152201 0.633226991 -2.5
v 1.06152201 0.531980991 -2.5
v 1.162655 0.633226991 -1.86898899
v 1.162655 0.633226991 -2.5
v 1.162655 0.531980991 -1.86898899
v 1.162655 0.531980991 -2.5
v 1.16265595 0.633226991 0.630427003
v 1.162655 0.531980991 0.630427003
v 1.16265595 0.531980991 0.00557299983
v 1.16265595 0.633226991 -0.00540200016
v 1.162655 0.633226991 -0.63025701
v 1.162655 0.531980991 -0.619280994
v 1.162655 0.531980991 -1.24413502
v 1.162655 0.633226991 -1.24413502
v 1.06152201 0.531980991 0.0103519997
v 1.06152201 0.00591900013 0.0103519997
v 1.16265595 0.00591900013 0.00557299983
v 1.06152296 0.633226991 0.624230981
v 1.06152201 0.633226991 0.0103519997
v 1.06152201 0.633226991 -0.625478029
v 1.06152201 0.633226991 -1.23935604
v 1.06152201 0.531980991 0.635205984
v 1.06152201 0.531980991 -0.614502013
v 1.06152201 0.531980991 -1.23935604
v 1.16265595 0.633226991 2.5
v 1.16265595 0.531980991 2.5
v 1.16265595 0.531980991 1.86916006
v 1.16265595 0.633226991 1.86916006
v 1.16265595 0.531980991 1.24430597
v 1.16265595 0.633226991 1.24430597
v 1.06152296 0.531980991 1.87393904
v 1.06152296 0.531980991 1.24908495
v 1.06152296 0.633226991 2.49879289
v 1.06152296 0.633226991 1.87393904
v 1.06152296 0.633226991 1.24908495
v 1.06152296 0.531980991 2.49879289
v 1.16265595 0.00591900013 1.24430597
v 1.162655 0.00591900013 0.630427003
v 1.06152201 0.00591900013 0.635205984
v 1.06152296 0.00591900013 1.24908495
v 1.162655 0.00591900013 -0.619280994
v 1.06152201 0.00591900013 -0.614502013
v 1.162655 0.00591900013 -1.24413502
v 1.06152201 0.00591900013 -1.23935604
v 1.06152201 0.00591900013 -1.86421001
v 1.162655 0.00591900013 -1.86898899
v 1.06152296 0.00591900013 2.49879289
v 1.06152296 0.00591900013 1.87393904
v 1.16265595 0.00591900013 1.86916006
v 1.16265595 0.00591900013 2.5
v -1.16026604 0.531980991 -1.86421001
v -1.16026604 0.633226991 -1.86421001
v -1.16026604 0.633226991 -2.5
v -1.16026604 0.531980991 -2.5
v -1.05913305 0.633226991 -1.86898899
v -1.05913305 0.633226991 -2.5
v -1.05913305 0.531980991 -1.86898899
v -1.05913305 0.531980991 -2.5
v -1.05913198 0.633226991 0.630427003
v -1.05913198 0.531980991 0.630427003
v -1.05913198 0.531980991 0.00557299983
v -1.05913198 0.633226991 -0.00540200016
v -1.05913198 0.633226991 -0.63025701
v -1.05913198 0.531980991 -0.619280994
v -1.05913198 0.531980991 -1.24413502
v -1.05913198 0.633226991 -1.24413502
v -1.16026497 0.531980991 0.0103519997
v -1.16026497 0.00591900013 0.0103519997
v -1.05913198 0.00591900013 0.00557299983
v -1.16026497 0.633226991 0.624230981
v -1.16026497 0.633226991 0.0103519997
v -1.16026497 0.633226991 -0.625478029
v -1.16026604 0.633226991 -1.23935604
v -1.16026497 0.531980991 0.635205984
v -1.16026497 0.531980991 -0.614502013
v -1.16026604 0.531980991 -1.23935604
v -1.05913103 0.633226991 2.5
v -1.05913198 0.531980991 2.5
v -1.05913103 0.531980991 1.86916006
v -1.05913103 0.633226991 1.86916006
v -1.05913198 0.531980991 1.24430597
v -1.05913198 0.633226991 1.24430597
v -1.16026497 0.531980991 1.87393904
v -1.16026497 0.531980991 1.24908495
v -1.16026402 0.633226991 2.5
v -1.16026497 0.633226991 1.87393904
v -1.16026497 0.633226991 1.24908495
v -1.16026497 0.531980991 2.5
v -1.05913198 0.00591900013 1.24430597
v -1.05913198 0.00591900013 0.630427003
v -1.16026497 0.00591900013 0.635205984
v -1.16026497 0.00591900013 1.24908495
v -1.05913198 0.00591900013 -0.619280994
v -1.16026497 0.00591900013 -0.614502013
v -1.05913198 0.00591900013 -1.24413502
v -1.16026604 0.00591900013 -1.23935604
v -1.16026604 0.00591900013 -1.86421001
v -1.05913305 0.00591900013 -1.86898899
v -1.16026497 0.00591900013 2.5
v -1.16026497 0.00591900013 1.87393904
v -1.05913103 0.00591900013 1.86916006
v -1.05913198 0.00591900013 2.5
v 1.162655 -0.0480669998 2.5
v 1.162655 0.0628530011 2.5
v -1.16026497 0.0628530011 2.5
v -1.16026497 -0.0480669998 2.5
v -1.16026497 0.0628530011 -2.5
v -1.16026497 -0.0480669998 -2.5
v 1.162655 0.0628530011 -2.5
v 1.162655 -0.0480669998 -2.5
vn -1 0 0
vn -1 0 0
vn -1 0 0
vn -1 0 0
vn 0 1 0
vn 0 1 0
vn 0 1 0
vn 0 1 0
vn 1 0 0
vn 1 0 0
vn 1 0 0
vn 1 0 0
vn 1 0 0
vn 1 0 0
vn 1 0 0
vn 1 0 0
vn 1 0 0
vn 1 0 0
vn 1 0 0
vn 1 0 0
vn 1 0 0
vn 1 0 0
vn 1 0 0
vn 1 0 0
vn 0.0472000018 0 0.998899996
vn 0.0472000018 0 0.998899996
vn 0.0472000018 0 0.998899996
vn 0.0472000018 0 0.998899996
vn 0 1 0
vn 0 1 0
vn 0 1 0
vn 0 1 0
vn 0 1 0
vn 0 1 0
vn 0 1 0
vn 0 1 0
vn 0 1 0
vn 0 1 0
vn 0 1 0
vn 0 1 0
vn -1 0 0
vn -1 0 0
vn -1 0 0
vn -1 0 0
vn -1 0 0
vn -1 0 0
vn -1 0 0
vn -1 0 0
vn -1 0 0
vn -1 0 0
vn -1 0 0
vn -1 0 0
vn -1 0 0
vn -1 0 0
vn -1 0 0
vn -1 0 0
vn 0 1 0
vn 0 1 0
vn 0 1 0
vn 0 1 0
vn 1 0 0
vn 1 0 0
vn 1 0 0
vn 1 0 0
vn 1 0 0
vn 1 0 0
vn 1 0 0
vn 1 0 0
vn 1 0 0
vn 1 0 0
vn 1 0 0
vn 1 0 0
vn 1 0 0
vn 1 0 0
vn 1 0 0
vn 1 0 0
vn 0 -1 0
vn 0 -1 0
vn 0 -1 0
vn 0 -1 0
vn 0 1 0
vn 0 1 0
vn 0 1 0
vn 0 1 0
vn 0 1 0
vn 0 1 0
vn 0 1 0
vn 0 1 0
vn 0 1 0
vn 0 1 0
vn 0 1 0
vn 0 1 0
vn -1 0 0
vn -1 0 0
vn -1 0 0
vn -1 0 0
vn -1 0 0
vn -1 0 0
vn -1 0 0
vn -1 0 0
vn -1 0 0
vn -1 0 0
vn -1 0 0
vn -1 0 0
vn 0 -1 0
vn 0 -1 0
vn 0 -1 0
vn 0 -1 0
vn 0 -1 0
vn 0 -1 0
vn 0 -1 0
vn 0 -1 0
vn 1 0 0
vn 1 0 0
vn 1 0 0
vn 1 0 0
vn 0 -1 0
vn 0 -1 0
vn 0 -1 0
vn 0 -1 0
vn -1 0 0
vn -1 0 0
vn -1 0 0
vn -1 0 0
vn -0.0472000018 0 -0.998899996
vn -0.0472000018 0 -0.998899996
vn -0.0472000018 0 -0.998899996
vn -0.0472000018 0 -0.998899996
vn 0 -1 0
vn 0 -1 0
vn 0 -1 0
vn 0 -1 0
vn 0 -1 0
vn 0 -1 0
vn 0 -1 0
vn 0 -1 0
vn 0 -1 0
vn 0 -1 0
vn 0 -1 0
vn 0 -1 0
vn 0 -1 0
vn 0 -1 0
vn 0 -1 0
vn 0 -1 0
vn -0.0472000018 0 -0.998899996
vn -0.0472000018 0 -0.998899996
vn -0.0472000018 0 -0.998899996
vn -0.0472000018 0 -0.998899996
vn -0.0472000018 0 -0.998899996
vn -0.0472000018 0 -0.998899996
vn -0.0472000018 0 -0.998899996
vn -0.0472000018 0 -0.998899996
vn 0.0472000018 0 0.998899996
vn 0.0472000018 0 0.998899996
vn 0.0472000018 0 0.998899996
vn 0.0472000018 0 0.998899996
vn -0.0119000003 0 0.999899983
vn -0.0119000003 0 0.999899983
vn -0.0119000003 0 0.999899983
vn -0.0119000003 0 0.999899983
vn 1 0 0
vn 1 0 0
vn 1 0 0
vn 1 0 0
vn 1 0 0
vn 1 0 0
vn 1 0 0
vn 1 0 0
vn -1 0 0
vn -1 0 0
vn -1 0 0
vn -1 0 0
vn 1 0 0
vn 1 0 0
vn 1 0 0
vn 1 0 0
vn 0.0472000018 0 0.998899996
vn 0.0472000018 0 0.998899996
vn 0.0472000018 0 0.998899996
vn 0.0472000018 0 0.998899996
vn -1 0 0
vn -1 0 0
vn -1 0 0
vn -1 0 0
vn -0.0472000018 0 -0.998899996
vn -0.0472000018 0 -0.998899996
vn -0.0472000018 0 -0.998899996
vn -0.0472000018 0 -0.998899996
vn -1 0 0
vn -1 0 0
vn -1 0 0
vn -1 0 0
vn -1 0 0
vn -1 0 0
vn -1 0 0
vn -1 0 0
vn 0 1 0
vn 0 1 0
vn 0 1 0
vn 0 1 0
vn 1 0 0
vn 1 0 0
vn 1 0 0
vn 1 0 0
vn 1 0 0
vn 1 0 0
vn 1 0 0
vn 1 0 0
vn 1 0 0
vn 1 0 0
vn 1 0 0
vn 1 0 0
vn 1 0 0
vn 1 0 0
vn 1 0 0
vn 1 0 0
vn 0.0472000018 0 0.998899996
vn 0.0472000018 0 0.998899996
vn 0.0472000018 0 0.998899996
vn 0.0472000018 0 0.998899996
vn 0 1 0
vn 0 1 0
vn 0 1 0
vn 0 1 0
vn 0 1 0
vn 0 1 0
vn 0 1 0
vn 0 1 0
vn 0 1 0
vn 0 1 0
vn 0 1 0
vn 0 1 0
vn -1 0 0
vn -1 0 0
vn -1 0 0
vn -1 0 0
vn -1 0 0
vn -1 0 0
vn -1 0 0
vn -1 0 0
vn -1 0 0
vn -1 0 0
vn -1 0 0
vn -1 0 0
vn -1 0 0
vn -1 0 0
vn -1 0 0
vn -1 0 0
vn 0 1 0
vn 0 1 0
vn 0 1 0
vn 0 1 0
vn 1 0 0
vn 1 0 0
vn 1 0 0
vn 1 0 0
vn 1 0 0
vn 1 0 0
vn 1 0 0
vn 1 0 0
vn 1 0 0
vn 1 0 0
vn 1 0 0
vn 1 0 0
vn 1 0 0
vn 1 0 0
vn 1 0 0
vn 1 0 0
vn 0 -1 0
vn 0 -1 0
vn 0 -1 0
vn 0 -1 0
vn 0 1 0
vn 0 1 0
vn 0 1 0
vn 0 1 0
vn 0 1 0
vn 0 1 0
vn 0 1 0
vn 0 1 0
vn 0 1 0
vn 0 1 0
vn 0 1 0
vn 0 1 0
vn -1 0 0
vn -1 0 0
vn -1 0 0
vn -1 0 0
vn -1 0 0
vn -1 0 0
vn -1 0 0
vn -1 0 0
vn -1 0 0
vn -1 0 0
vn -1 0 0
vn -1 0 0
vn 0 -1 0
vn 0 -1 0
vn 0 -1 0
vn 0 -1 0
vn 0 -1 0
vn 0 -1 0
vn 0 -1 0
vn 0 -1 0
vn 1 0 0
vn 1 0 0
vn 1 0 0
vn 1 0 0
vn 0 -1 0
vn 0 -1 0
vn 0 -1 0
vn 0 -1 0
vn -1 0 0
vn -1 0 0
vn -1 0 0
vn -1 0 0
vn -0.0472000018 0 -0.998899996
vn -0.0472000018 0 -0.998899996
vn -0.0472000018 0 -0.998899996
vn -0.0472000018 0 -0.998899996
vn 0 -1 0
vn 0 -1 0
vn 0 -1 0
vn 0 -1 0
vn 0 -1 0
vn 0 -1 0
vn 0 -1 0
vn 0 -1 0
vn 0 -1 0
vn 0 -1 0
vn 0 -1 0
vn 0 -1 0
vn 0 -1 0
vn 0 -1 0
vn 0 -1 0
vn 0 -1 0
vn -0.0472000018 0 -0.998899996
vn -0.0472000018 0 -0.998899996
vn -0.0472000018 0 -0.998899996
vn -0.0472000018 0 -0.998899996
vn -0.0472000018 0 -0.998899996
vn -0.0472000018 0 -0.998899996
vn -0.0472000018 0 -0.998899996
vn -0.0472000018 0 -0.998899996
vn 0.0472000018 0 0.998899996
vn 0.0472000018 0 0.998899996
vn 0.0472000018 0 0.998899996
vn 0.0472000018 0 0.998899996
vn 0 0 1
vn 0 0 1
vn 0 0 1
vn 0 0 1
vn 1 0 0
vn 1 0 0
vn 1 0 0
vn 1 0 0
vn 1 0 0
vn 1 0 0
vn 1 0 0
vn 1 0 0
vn -1 0 0
vn -1 0 0
vn -1 0 0
vn -1 0 0
vn 1 0 0
vn 1 0 0
vn 1 0 0
vn 1 0 0
vn 0.0472000018 0 0.998899996
vn 0.0472000018 0 0.998899996
vn 0.0472000018 0 0.998899996
vn 0.0472000018 0 0.998899996
vn -1 0 0
vn -1 0 0
vn -1 0 0
vn -1 0 0
vn -0.0472000018 0 -0.998899996
vn -0.0472000018 0 -0.998899996
vn -0.0472000018 0 -0.998899996
vn -0.0472000018 0 -0.998899996
vn -1 0 0
vn -1 0 0
vn -1 0 0
vn -1 0 0
vn 0 0 1
vn 0 0 1
vn 0 0 1
vn 0 0 1
vn -1 0 0
vn -1 0 0
vn -1 0 0
vn -1 0 0
vn 0 0 -1
vn 0 0 -1
vn 0 0 -1
vn 0 0 -1
vn 1 0 0
vn 1 0 0
vn 1 0 0
vn 1 0 0
vn 0 -1 0
vn 0 -1 0
vn 0 -1 0
vn 0 -1 0
vn 0 1 0
vn 0 1 0
vn 0 1 0
vn 0 1 0
g 
usemtl /mat/None.088
f 1//1 2//2 3//3 4//4
f 2//5 5//6 6//7 3//8
f 5//9 7//10 8//11 6//12
f 9//13 10//14 11//15 12//16
f 13//17 14//18 15//19 16//20
f 16//21 15//22 7//23 5//24
f 11//25 17//26 18//27 19//28
f 20//29 9//30 12//31 21//32
f 22//33 13//34 16//35 23//36
f 23//37 16//38 5//39 2//40
f 24//41 20//42 21//43 17//44
f 25//45 22//46 23//47 26//48
f 26//49 23//50 2//51 1//52
f 17//53 21//54 22//55 25//56
f 21//57 12//58 13//59 22//60
f 12//61 11//62 14//63 13//64
f 27//65 28//66 29//67 30//68
f 30//69 29//70 31//71 32//72
f 32//73 31//74 10//75 9//76
f 29//77 33//78 34//79 31//80
f 35//81 27//82 30//83 36//84
f 36//85 30//86 32//87 37//88
f 37//89 32//90 9//91 20//92
f 38//93 35//94 36//95 33//96
f 33//97 36//98 37//99 34//100
f 34//101 37//102 20//103 24//104
f 1//105 4//106 8//107 7//108
f 25//109 26//110 15//111 14//112
f 10//113 31//114 39//115 40//116
f 24//117 17//118 11//119 10//120
f 34//121 24//122 41//123 42//124
f 25//125 14//126 43//127 44//128
f 45//129 46//130 47//131 48//132
f 19//133 18//134 44//135 43//136
f 39//137 42//138 41//139 40//140
f 49//141 50//142 51//143 52//144
f 33//145 29//146 51//147 50//148
f 24//149 10//150 40//151 41//152
f 31//153 34//154 42//155 39//156
f 28//157 38//158 49//159 52//160
f 7//161 15//162 45//163 48//164
f 14//165 11//166 19//167 43//168
f 26//169 1//170 47//171 46//172
f 29//173 28//174 52//175 51//176
f 15//177 26//178 46//179 45//180
f 17//181 25//182 44//183 18//184
f 1//185 7//186 48//187 47//188
f 38//189 33//190 50//191 49//192
f 53//193 54//194 55//195 56//196
f 54//197 57//198 58//199 55//200
f 57//201 59//202 60//203 58//204
f 61//205 62//206 63//207 64//208
f 65//209 66//210 67//211 68//212
f 68//213 67//214 59//215 57//216
f 63//217 69//218 70//219 71//220
f 72//221 61//222 64//223 73//224
f 74//225 65//226 68//227 75//228
f 75//229 68//230 57//231 54//232
f 76//233 72//234 73//235 69//236
f 77//237 74//238 75//239 78//240
f 78//241 75//242 54//243 53//244
f 69//245 73//246 74//247 77//248
f 73//249 64//250 65//251 74//252
f 64//253 63//254 66//255 65//256
f 79//257 80//258 81//259 82//260
f 82//261 81//262 83//263 84//264
f 84//265 83//266 62//267 61//268
f 81//269 85//270 86//271 83//272
f 87//273 79//274 82//275 88//276
f 88//277 82//278 84//279 89//280
f 89//281 84//282 61//283 72//284
f 90//285 87//286 88//287 85//288
f 85//289 88//290 89//291 86//292
f 86//293 89//294 72//295 76//296
f 53//297 56//298 60//299 59//300
f 77//301 78//302 67//303 66//304
f 62//305 83//306 91//307 92//308
f 76//309 69//310 63//311 62//312
f 86//313 76//314 93//315 94//316
f 77//317 66//318 95//319 96//320
f 97//321 98//322 99//323 100//324
f 71//325 70//326 96//327 95//328
f 91//329 94//330 93//331 92//332
f 101//333 102//334 103//335 104//336
f 85//337 81//338 103//339 102//340
f 76//341 62//342 92//343 93//344
f 83//345 86//346 94//347 91//348
f 80//349 90//350 101//351 104//352
f 59//353 67//354 97//355 100//356
f 66//357 63//358 71//359 95//360
f 78//361 53//362 99//363 98//364
f 81//365 80//366 104//367 103//368
f 67//369 78//370 98//371 97//372
f 69//373 77//374 96//375 70//376
f 53//377 59//378 100//379 99//380
f 90//381 85//382 102//383 101//384
f 105//385 106//386 107//387 108//388
f 108//389 107//390 109//391 110//392
f 110//393 109//394 111//395 112//396
f 112//397 111//398 106//399 105//400
f 108//401 110//402 112//403 105//404
f 109//405 107//406 106//407 111//408
