# File exported by Houdini 17.5.173 (www.sidefx.com)
# 136 points
# 384 vertices
# 96 primitives
# Bounds: [-2.50000095, -2.14196992, -1.99999999e-06] to [2.50000095, 0.845233023, 5.2249279]
g 
v -2.5 -0.141972005 5.2249279
v -2.5 -0.0310520008 5.2249279
v -2.50000095 -0.0310520008 0
v -2.50000095 -0.141972005 0
v 2.5 -0.0310510006 -1.99999999e-06
v 2.5 -0.141971007 -1.99999999e-06
v 2.5 -0.0310510006 5.22492599
v 2.5 -0.141971007 5.22492599
v -2.5 0.813618004 4.94712114
v 2.5 0.813616991 4.94711304
v 2.5 0.845233023 4.94711304
v -2.5 0.84523201 4.94712114
v 2.5 0.845233023 4.84330893
v -2.5 0.84523201 4.84331799
v 2.5 0.813616991 4.84330893
v -2.5 0.813618004 4.84331799
v -2.5 0.572422028 4.81091022
v 2.5 0.572422028 4.81089878
v -2.5 0.62083298 4.81091022
v 2.5 0.62083298 4.81089878
v -2.5 0.62083298 4.97953176
v 2.5 0.62083298 4.97951984
v 2.5 0.572422028 4.97951984
v -2.5 0.572422028 4.97953176
v 1.73781204 0.583443999 4.9690299
v 1.73781097 0.205047995 4.9690299
v 1.91472006 0.205047995 4.969028
v 1.91471803 0.583445013 4.9690299
v 1.91471803 0.205047995 4.82196093
v 1.91471803 0.583445013 4.82196379
v 1.73781097 0.205047995 4.82196093
v 1.73781097 0.583445013 4.82196379
v 1.78076303 0.613942027 4.92799997
v 1.87176704 0.613942027 4.92799997
v 1.87176597 0.613942027 4.86242723
v 1.78076303 0.613942027 4.86242723
v 1.78076303 0.820051014 4.92799997
v 1.87176704 0.820051014 4.92799997
v 1.87176597 0.820051014 4.86242819
v 1.78076303 0.820051014 4.86242819
v 0.833976984 0.583445013 4.96903086
v 0.833976984 0.205048993 4.96903086
v 1.01088595 0.205048993 4.96902895
v 1.01088405 0.583445013 4.96903086
v 1.01088405 0.205048993 4.82196188
v 1.01088405 0.583445013 4.82196379
v 0.833976984 0.205048993 4.82196188
v 0.833976984 0.583445013 4.82196379
v -1.02811396 0.583445013 4.96903181
v -1.02811396 0.205047995 4.96903181
v -0.851206005 0.205047995 4.9690299
v -0.851207972 0.583445013 4.96903181
v -0.851207972 0.205047995 4.82196283
v -0.851207972 0.583445013 4.82196522
v -1.02811396 0.205047995 4.82196283
v -1.02811396 0.583445013 4.82196522
v -1.93777895 0.582866013 4.96903181
v -1.93777895 0.205059007 4.96903181
v -1.76087105 0.205059007 4.9690299
v -1.76087296 0.582866013 4.96903181
v -1.76087296 0.205059007 4.82196379
v -1.76087296 0.582866013 4.82196617
v -1.93777895 0.205059007 4.82196379
v -1.93777895 0.582866013 4.82196617
v -1.89482701 0.613942027 4.92800283
v -1.80382299 0.613942027 4.92800188
v -1.80382395 0.613942027 4.86242914
v -1.89482796 0.613942027 4.86242914
v -1.89482796 0.820051014 4.92800283
v -1.80382395 0.820051014 4.92800188
v -1.80382395 0.820051014 4.8624301
v -1.89482796 0.820051014 4.8624301
v 2.5 -0.0310529992 5
v -2.5 -0.0310520008 5.00001812
v -2.5 -0.0310520008 4.78450108
v 2.5 -0.0310529992 4.78448296
v 2.5 0.211796999 5
v -2.5 0.211797997 5.00001812
v 2.5 0.211796999 4.78448296
v -2.5 0.211797997 4.78450108
v -2.5 0.199551001 4.9199729
v 2.5 0.199551001 4.91996813
v 2.5 0.219961002 4.91996813
v -2.5 0.219961002 4.9199729
v 2.5 0.219961002 4.87045717
v -2.5 0.219961002 4.87046289
v 2.5 0.199551001 4.87045717
v -2.5 0.199551001 4.87046289
v -0.0891909972 0.583445013 4.96903181
v -0.0891909972 0.205048993 4.96903181
v 0.0877169967 0.205048993 4.96902895
v 0.0877159983 0.583445013 4.96903181
v 0.0877159983 0.205048993 4.82196283
v 0.0877149999 0.583445013 4.82196522
v -0.0891909972 0.205048993 4.82196283
v -0.0891909972 0.583445013 4.82196522
v -0.0462389998 0.613942027 4.92800188
v 0.0447649993 0.613942027 4.92800093
v 0.0447640009 0.613942027 4.86242914
v -0.0462389998 0.613942027 4.86242914
v -0.0462389998 0.820051014 4.92800188
v 0.0447649993 0.820051014 4.92800093
v 0.0447640009 0.820051014 4.86242914
v -0.0462389998 0.820051014 4.86242914
v -1.985255 -0.141972005 5.0085001
v -1.985255 -2.14196992 5.0085001
v -1.713395 -2.14196992 5.00849724
v -1.71339703 -0.141971007 5.0085001
v -1.71339703 -2.14196992 4.78249502
v -1.71339703 -0.141971007 4.78249884
v -1.985255 -2.14196992 4.78249502
v -1.985255 -0.141971007 4.78249884
v -0.140779004 -0.141972005 5.0085001
v -0.140779004 -2.14196992 5.0085001
v 0.131081998 -2.14196992 5.00849724
v 0.131079003 -0.141971007 5.0085001
v 0.131079003 -2.14196992 4.78249502
v 0.131079003 -0.141971007 4.78249884
v -0.140779004 -2.14196992 4.78249502
v -0.140779004 -0.141971007 4.78249884
v 1.68747306 -0.141972005 5.0085001
v 1.68747306 -2.14196992 5.0085001
v 1.95933294 -2.14196992 5.00849724
v 1.95933104 -0.141971007 5.0085001
v 1.95933104 -2.14196992 4.78249502
v 1.95933104 -0.141971007 4.78249884
v 1.68747306 -2.14196992 4.78249502
v 1.68747306 -0.141971007 4.78249884
v 2.5 -0.141972005 4.97670698
v -2.5 -0.141971007 4.97670698
v -2.5 -0.528859973 4.97670412
v 2.50000095 -0.528856993 4.97670698
v -2.5 -0.528855979 4.78249216
v 2.5 -0.528855979 4.78249502
v -2.5 -0.141971007 4.78249216
v 2.5 -0.141972005 4.78249502
vt 0 0 0
vn -1 0 0
vn -1 0 0
vn -1 0 0
vn -1 0 0
vn -0 0 -1
vn -0 0 -1
vn -0 0 -1
vn -0 0 -1
vn 1 0 -0
vn 1 0 -0
vn 1 0 -0
vn 1 0 -0
vn 0 0 1
vn 0 0 1
vn 0 0 1
vn 0 0 1
vn 0 -1 0
vn 0 -1 0
vn 0 -1 0
vn 0 -1 0
vn -0 1 0
vn -0 1 0
vn -0 1 0
vn -0 1 0
vn 0 0 1
vn 0 0 1
vn 0 0 1
vn 0 0 1
vn -0 1 0
vn -0 1 0
vn -0 1 0
vn -0 1 0
vn -0 0 -1
vn -0 0 -1
vn -0 0 -1
vn -0 0 -1
vn 0 -1 0
vn 0 -1 0
vn 0 -1 0
vn 0 -1 0
vn -1 0 0
vn -1 0 0
vn -1 0 0
vn -1 0 0
vn 1 0 -0
vn 1 0 -0
vn 1 0 -0
vn 1 0 -0
vn 1 0 -0
vn 1 0 -0
vn 1 0 -0
vn 1 0 -0
vn -1 0 0
vn -1 0 0
vn -1 0 0
vn -1 0 0
vn 0 -1 0
vn 0 -1 0
vn 0 -1 0
vn 0 -1 0
vn -0 0 -1
vn -0 0 -1
vn -0 0 -1
vn -0 0 -1
vn -0 1 0
vn -0 1 0
vn -0 1 0
vn -0 1 0
vn 0 0 1
vn 0 0 1
vn 0 0 1
vn 0 0 1
vn 0 0 1
vn 0 0 1
vn 0 0 1
vn 0 0 1
vn 1 0 -0
vn 1 0 -0
vn 1 0 -0
vn 1 0 -0
vn -0 0 -1
vn -0 0 -1
vn -0 0 -1
vn -0 0 -1
vn -1 0 0
vn -1 0 0
vn -1 0 0
vn -1 0 0
vn -0 1 0
vn -0 1 0
vn -0 1 0
vn -0 1 0
vn 0 0 1
vn 0 0 1
vn 0 0 1
vn 0 0 1
vn 1 0 -0
vn 1 0 -0
vn 1 0 -0
vn 1 0 -0
vn -0 0 -1
vn -0 0 -1
vn -0 0 -1
vn -0 0 -1
vn -1 0 0
vn -1 0 0
vn -1 0 0
vn -1 0 0
vn 0 -1 0
vn 0 -1 0
vn 0 -1 0
vn 0 -1 0
vn 0 0 1
vn 0 0 1
vn 0 0 1
vn 0 0 1
vn 1 0 -0
vn 1 0 -0
vn 1 0 -0
vn 1 0 -0
vn -0 0 -1
vn -0 0 -1
vn -0 0 -1
vn -0 0 -1
vn -1 0 0
vn -1 0 0
vn -1 0 0
vn -1 0 0
vn -0 1 0
vn -0 1 0
vn -0 1 0
vn -0 1 0
vn 0 0 1
vn 0 0 1
vn 0 0 1
vn 0 0 1
vn 1 0 -0
vn 1 0 -0
vn 1 0 -0
vn 1 0 -0
vn -0 0 -1
vn -0 0 -1
vn -0 0 -1
vn -0 0 -1
vn -1 0 0
vn -1 0 0
vn -1 0 0
vn -1 0 0
vn -0 1 0
vn -0 1 0
vn -0 1 0
vn -0 1 0
vn 0 -1 0
vn 0 -1 0
vn 0 -1 0
vn 0 -1 0
vn 0 0 1
vn 0 0 1
vn 0 0 1
vn 0 0 1
vn 1 0 -0
vn 1 0 -0
vn 1 0 -0
vn 1 0 -0
vn -0 0 -1
vn -0 0 -1
vn -0 0 -1
vn -0 0 -1
vn -1 0 0
vn -1 0 0
vn -1 0 0
vn -1 0 0
vn -0 1 0
vn -0 1 0
vn -0 1 0
vn -0 1 0
vn 0 -1 0
vn 0 -1 0
vn 0 -1 0
vn 0 -1 0
vn 0 0 1
vn 0 0 1
vn 0 0 1
vn 0 0 1
vn 1 0 -0
vn 1 0 -0
vn 1 0 -0
vn 1 0 -0
vn -0 0 -1
vn -0 0 -1
vn -0 0 -1
vn -0 0 -1
vn -1 0 0
vn -1 0 0
vn -1 0 0
vn -1 0 0
vn 0 -1 0
vn 0 -1 0
vn 0 -1 0
vn 0 -1 0
vn 0 -1 0
vn 0 -1 0
vn 0 -1 0
vn 0 -1 0
vn -0 1 0
vn -0 1 0
vn -0 1 0
vn -0 1 0
vn -0 0 -1
vn -0 0 -1
vn -0 0 -1
vn -0 0 -1
vn 0 0 1
vn 0 0 1
vn 0 0 1
vn 0 0 1
vn -1 0 0
vn -1 0 0
vn -1 0 0
vn -1 0 0
vn 1 0 -0
vn 1 0 -0
vn 1 0 -0
vn 1 0 -0
vn 0 0 1
vn 0 0 1
vn 0 0 1
vn 0 0 1
vn -0 1 0
vn -0 1 0
vn -0 1 0
vn -0 1 0
vn -0 0 -1
vn -0 0 -1
vn -0 0 -1
vn -0 0 -1
vn -1 0 0
vn -1 0 0
vn -1 0 0
vn -1 0 0
vn 1 0 -0
vn 1 0 -0
vn 1 0 -0
vn 1 0 -0
vn 0 0 1
vn 0 0 1
vn 0 0 1
vn 0 0 1
vn 1 0 -0
vn 1 0 -0
vn 1 0 -0
vn 1 0 -0
vn -0 0 -1
vn -0 0 -1
vn -0 0 -1
vn -0 0 -1
vn -1 0 0
vn -1 0 0
vn -1 0 0
vn -1 0 0
vn -0 1 0
vn -0 1 0
vn -0 1 0
vn -0 1 0
vn 0 -1 0
vn 0 -1 0
vn 0 -1 0
vn 0 -1 0
vn 0 0 1
vn 0 0 1
vn 0 0 1
vn 0 0 1
vn 1 0 -0
vn 1 0 -0
vn 1 0 -0
vn 1 0 -0
vn -0 0 -1
vn -0 0 -1
vn -0 0 -1
vn -0 0 -1
vn -1 0 0
vn -1 0 0
vn -1 0 0
vn -1 0 0
vn 0 -1 0
vn 0 -1 0
vn 0 -1 0
vn 0 -1 0
vn 0 0 1
vn 0 0 1
vn 0 0 1
vn 0 0 1
vn 1 0 -0
vn 1 0 -0
vn 1 0 -0
vn 1 0 -0
vn -0 0 -1
vn -0 0 -1
vn -0 0 -1
vn -0 0 -1
vn -1 0 0
vn -1 0 0
vn -1 0 0
vn -1 0 0
vn -0 1 0
vn -0 1 0
vn -0 1 0
vn -0 1 0
vn 0 -1 0
vn 0 -1 0
vn 0 -1 0
vn 0 -1 0
vn 0 0 1
vn 0 0 1
vn 0 0 1
vn 0 0 1
vn 1 0 -0
vn 1 0 -0
vn 1 0 -0
vn 1 0 -0
vn -0 0 -1
vn -0 0 -1
vn -0 0 -1
vn -0 0 -1
vn -1 0 0
vn -1 0 0
vn -1 0 0
vn -1 0 0
vn -0 1 0
vn -0 1 0
vn -0 1 0
vn -0 1 0
vn 0 -1 0
vn 0 -1 0
vn 0 -1 0
vn 0 -1 0
vn 0 0 1
vn 0 0 1
vn 0 0 1
vn 0 0 1
vn 1 0 -0
vn 1 0 -0
vn 1 0 -0
vn 1 0 -0
vn -0 0 -1
vn -0 0 -1
vn -0 0 -1
vn -0 0 -1
vn -1 0 0
vn -1 0 0
vn -1 0 0
vn -1 0 0
vn -0 1 0
vn -0 1 0
vn -0 1 0
vn -0 1 0
vn 0 -1 0
vn 0 -1 0
vn 0 -1 0
vn 0 -1 0
vn 0 0 1
vn 0 0 1
vn 0 0 1
vn 0 0 1
vn 0 -1 0
vn 0 -1 0
vn 0 -1 0
vn 0 -1 0
vn -0 0 -1
vn -0 0 -1
vn -0 0 -1
vn -0 0 -1
vn -0 1 0
vn -0 1 0
vn -0 1 0
vn -0 1 0
vn 1 0 -0
vn 1 0 -0
vn 1 0 -0
vn 1 0 -0
vn -1 0 0
vn -1 0 0
vn -1 0 0
vn -1 0 0
g 
f 1/1/1 2/1/2 3/1/3 4/1/4
f 4/1/5 3/1/6 5/1/7 6/1/8
f 6/1/9 5/1/10 7/1/11 8/1/12
f 8/1/13 7/1/14 2/1/15 1/1/16
f 4/1/17 6/1/18 8/1/19 1/1/20
f 5/1/21 3/1/22 2/1/23 7/1/24
f 9/1/25 10/1/26 11/1/27 12/1/28
f 12/1/29 11/1/30 13/1/31 14/1/32
f 14/1/33 13/1/34 15/1/35 16/1/36
f 16/1/37 15/1/38 10/1/39 9/1/40
f 12/1/41 14/1/42 16/1/43 9/1/44
f 13/1/45 11/1/46 10/1/47 15/1/48
f 20/1/49 22/1/50 23/1/51 18/1/52
f 21/1/53 19/1/54 17/1/55 24/1/56
f 17/1/57 18/1/58 23/1/59 24/1/60
f 19/1/61 20/1/62 18/1/63 17/1/64
f 21/1/65 22/1/66 20/1/67 19/1/68
f 24/1/69 23/1/70 22/1/71 21/1/72
f 25/1/73 26/1/74 27/1/75 28/1/76
f 28/1/77 27/1/78 29/1/79 30/1/80
f 30/1/81 29/1/82 31/1/83 32/1/84
f 32/1/85 31/1/86 26/1/87 25/1/88
f 28/1/89 30/1/90 32/1/91 25/1/92
f 37/1/93 33/1/94 34/1/95 38/1/96
f 38/1/97 34/1/98 35/1/99 39/1/100
f 39/1/101 35/1/102 36/1/103 40/1/104
f 40/1/105 36/1/106 33/1/107 37/1/108
f 35/1/109 34/1/110 33/1/111 36/1/112
f 41/1/113 42/1/114 43/1/115 44/1/116
f 44/1/117 43/1/118 45/1/119 46/1/120
f 46/1/121 45/1/122 47/1/123 48/1/124
f 48/1/125 47/1/126 42/1/127 41/1/128
f 44/1/129 46/1/130 48/1/131 41/1/132
f 49/1/133 50/1/134 51/1/135 52/1/136
f 52/1/137 51/1/138 53/1/139 54/1/140
f 54/1/141 53/1/142 55/1/143 56/1/144
f 56/1/145 55/1/146 50/1/147 49/1/148
f 52/1/149 54/1/150 56/1/151 49/1/152
f 53/1/153 51/1/154 50/1/155 55/1/156
f 57/1/157 58/1/158 59/1/159 60/1/160
f 60/1/161 59/1/162 61/1/163 62/1/164
f 62/1/165 61/1/166 63/1/167 64/1/168
f 64/1/169 63/1/170 58/1/171 57/1/172
f 60/1/173 62/1/174 64/1/175 57/1/176
f 61/1/177 59/1/178 58/1/179 63/1/180
f 69/1/181 65/1/182 66/1/183 70/1/184
f 70/1/185 66/1/186 67/1/187 71/1/188
f 71/1/189 67/1/190 68/1/191 72/1/192
f 72/1/193 68/1/194 65/1/195 69/1/196
f 67/1/197 66/1/198 65/1/199 68/1/200
f 73/1/201 74/1/202 75/1/203 76/1/204
f 77/1/205 79/1/206 80/1/207 78/1/208
f 76/1/209 75/1/210 80/1/211 79/1/212
f 74/1/213 73/1/214 77/1/215 78/1/216
f 75/1/217 74/1/218 78/1/219 80/1/220
f 73/1/221 76/1/222 79/1/223 77/1/224
f 81/1/225 82/1/226 83/1/227 84/1/228
f 84/1/229 83/1/230 85/1/231 86/1/232
f 86/1/233 85/1/234 87/1/235 88/1/236
f 84/1/237 86/1/238 88/1/239 81/1/240
f 85/1/241 83/1/242 82/1/243 87/1/244
f 89/1/245 90/1/246 91/1/247 92/1/248
f 92/1/249 91/1/250 93/1/251 94/1/252
f 94/1/253 93/1/254 95/1/255 96/1/256
f 96/1/257 95/1/258 90/1/259 89/1/260
f 92/1/261 94/1/262 96/1/263 89/1/264
f 93/1/265 91/1/266 90/1/267 95/1/268
f 101/1/269 97/1/270 98/1/271 102/1/272
f 102/1/273 98/1/274 99/1/275 103/1/276
f 103/1/277 99/1/278 100/1/279 104/1/280
f 104/1/281 100/1/282 97/1/283 101/1/284
f 99/1/285 98/1/286 97/1/287 100/1/288
f 105/1/289 106/1/290 107/1/291 108/1/292
f 108/1/293 107/1/294 109/1/295 110/1/296
f 110/1/297 109/1/298 111/1/299 112/1/300
f 112/1/301 111/1/302 106/1/303 105/1/304
f 108/1/305 110/1/306 112/1/307 105/1/308
f 109/1/309 107/1/310 106/1/311 111/1/312
f 113/1/313 114/1/314 115/1/315 116/1/316
f 116/1/317 115/1/318 117/1/319 118/1/320
f 118/1/321 117/1/322 119/1/323 120/1/324
f 120/1/325 119/1/326 114/1/327 113/1/328
f 116/1/329 118/1/330 120/1/331 113/1/332
f 117/1/333 115/1/334 114/1/335 119/1/336
f 121/1/337 122/1/338 123/1/339 124/1/340
f 124/1/341 123/1/342 125/1/343 126/1/344
f 126/1/345 125/1/346 127/1/347 128/1/348
f 128/1/349 127/1/350 122/1/351 121/1/352
f 124/1/353 126/1/354 128/1/355 121/1/356
f 125/1/357 123/1/358 122/1/359 127/1/360
f 129/1/361 130/1/362 131/1/363 132/1/364
f 132/1/365 131/1/366 133/1/367 134/1/368
f 134/1/369 133/1/370 135/1/371 136/1/372
f 136/1/373 135/1/374 130/1/375 129/1/376
f 132/1/377 134/1/378 136/1/379 129/1/380
f 133/1/381 131/1/382 130/1/383 135/1/384
