# File exported by Houdini 17.5.173 (www.sidefx.com)
# 8 points
# 24 vertices
# 6 primitives
# Bounds: [-2.5, -0.0554599985, -2.5] to [2.5, 0.0554599985, 2.5]
g 
v -2.5 -0.0554599985 2.5
v -2.5 0.0554599985 2.5
v -2.5 0.0554599985 -2.5
v -2.5 -0.0554599985 -2.5
v 2.5 0.0554599985 -2.5
v 2.5 -0.0554599985 -2.5
v 2.5 0.0554599985 2.5
v 2.5 -0.0554599985 2.5
vn -1 0 0
vn -1 0 0
vn -1 0 0
vn -1 0 0
vn 0 0 -1
vn 0 0 -1
vn 0 0 -1
vn 0 0 -1
vn 1 0 0
vn 1 0 0
vn 1 0 0
vn 1 0 0
vn 0 0 1
vn 0 0 1
vn 0 0 1
vn 0 0 1
vn 0 -1 -0
vn 0 -1 -0
vn 0 -1 -0
vn 0 -1 -0
vn 0 1 0
vn 0 1 0
vn 0 1 0
vn 0 1 0
g 
f 1//1 2//2 3//3 4//4
f 4//5 3//6 5//7 6//8
f 6//9 5//10 7//11 8//12
f 8//13 7//14 2//15 1//16
f 4//17 6//18 8//19 1//20
f 5//21 3//22 2//23 7//24
