# File exported by Houdini 17.5.173 (www.sidefx.com)
# 56 points
# 196 vertices
# 49 primitives
# Bounds: [-0.129513994, -0.00479499996, -2.50000095] to [2.50000095, 3.99734902, 0.129609004]
g 
v -0.0989700034 0.781819999 -2.5
v -0.0989700034 2.57428598 -2.5
v 0.00226500002 2.57428598 -2.5
v 0.00226500002 0.781819999 -2.5
v 2.5 2.57428503 0.000635000004
v 2.50000095 3.99520493 0.000636000012
v 2.50000095 3.99520493 0.0927049965
v 2.5 2.57428503 0.0927039981
v 0.00226700003 2.57428503 0.0927070007
v 0.00226700003 3.99520493 0.0927079991
v -0.0989679992 3.99520493 0.0927079991
v -0.0989679992 2.57428503 0.0927070007
v -0.0989679992 2.57428503 0.000637000019
v -0.0989679992 3.99520493 0.000638000027
v -0.0989700034 3.99520493 -2.5
v 0.00226700003 -0.00479499996 0.000636000012
v 0.00226700003 -0.00479499996 0.0927060023
v -0.0989679992 -0.00479499996 0.0927060023
v -0.0989679992 -0.00479499996 0.000636000012
v 0.00226700003 3.99520493 0.000638000027
v 0.00226500002 3.99520493 -2.5
v 0.00226500002 -0.00479499996 -2.50000095
v -0.0989700034 -0.00479499996 -2.50000095
v 0.00226700003 2.57428503 0.000637000019
v 2.50000095 -0.00479499996 0.000633999996
v 2.50000095 -0.00479499996 0.0927029997
v 2.5 0.781819999 0.0927039981
v 0.00226700003 0.781819999 0.0927070007
v 0.00226700003 0.781819999 0.000637000019
v 2.5 0.781819999 0.000635000004
v -0.0989679992 0.781819999 0.0927070007
v -0.0989679992 0.781819999 0.000637000019
v 0.0348960012 3.91428304 -1.28167903
v 0.0348969996 3.91428399 -2.50000095
v 0.0348969996 3.99734807 -2.50000095
v 0.0348960012 3.99734712 -1.28167903
v -0.0203060005 3.91428304 -0.034802001
v 1.27216303 3.91428399 -0.0348009989
v 1.27216303 3.91428304 0.129609004
v -0.0203060005 3.91428304 0.129608005
v 2.50000095 3.91428399 -0.0348009989
v 2.50000095 3.91428304 0.129609004
v -0.129513994 3.99734807 -1.28167903
v -0.129512995 3.99734902 -2.50000095
v -0.0203060005 3.99734712 -0.034802001
v -0.0203060005 3.99734712 0.129608005
v 1.27216303 3.99734712 0.129609004
v 1.27216303 3.99734807 -0.0348009989
v 2.50000095 3.99734712 0.129609004
v 2.50000095 3.99734807 -0.0348009989
v -0.129513994 3.99734712 0.129609004
v 0.0348960012 3.99734712 0.129609004
v -0.129513994 3.91428399 -1.28167903
v -0.129512995 3.91428399 -2.50000095
v -0.129513994 3.91428304 0.129609004
v 0.0348960012 3.91428304 0.129609004
vn 1 0 0
vn 1 0 0
vn 1 0 0
vn 1 0 0
vn 0 -1 -0
vn 0 -1 -0
vn 0 -1 -0
vn 0 -1 -0
vn 0 -1 -0
vn 0 -1 -0
vn 0 -1 -0
vn 0 -1 -0
vn 0 1 0
vn 0 1 0
vn 0 1 0
vn 0 1 0
vn 0 1 0
vn 0 1 0
vn 0 1 0
vn 0 1 0
vn 0 1 0
vn 0 1 0
vn 0 1 0
vn 0 1 0
vn 0 -0 1
vn 0 -0 1
vn 0 -0 1
vn 0 -0 1
vn 0 1 0
vn 0 1 0
vn 0 1 0
vn 0 1 0
vn 0 0 -1
vn 0 0 -1
vn 0 0 -1
vn 0 0 -1
vn 0 -1 -0
vn 0 -1 -0
vn 0 -1 -0
vn 0 -1 -0
vn 0 -0 1
vn 0 -0 1
vn 0 -0 1
vn 0 -0 1
vn -1 0 0
vn -1 0 0
vn -1 0 0
vn -1 0 0
vn 0 -1 -0
vn 0 -1 -0
vn 0 -1 -0
vn 0 -1 -0
vn 0 0 -1
vn 0 0 -1
vn 0 0 -1
vn 0 0 -1
vn -1 0 0
vn -1 0 0
vn -1 0 0
vn -1 0 0
vn 1 0 0
vn 1 0 0
vn 1 0 0
vn 1 0 0
vn 0 -0 1
vn 0 -0 1
vn 0 -0 1
vn 0 -0 1
vn -1 0 0
vn -1 0 0
vn -1 0 0
vn -1 0 0
vn 0 0 -1
vn 0 0 -1
vn 0 0 -1
vn 0 0 -1
vn 0 0 -1
vn 0 0 -1
vn 0 0 -1
vn 0 0 -1
vn 1 0 0
vn 1 0 0
vn 1 0 0
vn 1 0 0
vn 0 -0 1
vn 0 -0 1
vn 0 -0 1
vn 0 -0 1
vn -1 0 0
vn -1 0 0
vn -1 0 0
vn -1 0 0
vn 0 -1 -0
vn 0 -1 -0
vn 0 -1 -0
vn 0 -1 -0
vn 0 1 0
vn 0 1 0
vn 0 1 0
vn 0 1 0
vn 0 1 0
vn 0 1 0
vn 0 1 0
vn 0 1 0
vn 0 -1 -0
vn 0 -1 -0
vn 0 -1 -0
vn 0 -1 -0
vn -1 0 0
vn -1 0 0
vn -1 0 0
vn -1 0 0
vn 0 0 -1
vn 0 0 -1
vn 0 0 -1
vn 0 0 -1
vn 1 0 0
vn 1 0 0
vn 1 0 0
vn 1 0 0
vn 0 1 0
vn 0 1 0
vn 0 1 0
vn 0 1 0
vn 0 0 -1
vn 0 0 -1
vn 0 0 -1
vn 0 0 -1
vn 0 -1 -0
vn 0 -1 -0
vn 0 -1 -0
vn 0 -1 -0
vn 0 -0 1
vn 0 -0 1
vn 0 -0 1
vn 0 -0 1
vn 0 0 -1
vn 0 0 -1
vn 0 0 -1
vn 0 0 -1
vn 0 -0 1
vn 0 -0 1
vn 0 -0 1
vn 0 -0 1
vn 0 -0 1
vn 0 -0 1
vn 0 -0 1
vn 0 -0 1
vn 0 0 -1
vn 0 0 -1
vn 0 0 -1
vn 0 0 -1
vn 0 0 -1
vn 0 0 -1
vn 0 0 -1
vn 0 0 -1
vn 1 0 0
vn 1 0 0
vn 1 0 0
vn 1 0 0
vn 1 0 0
vn 1 0 0
vn 1 0 0
vn 1 0 0
vn -1 0 0
vn -1 0 0
vn -1 0 0
vn -1 0 0
vn -1 0 0
vn -1 0 0
vn -1 0 0
vn -1 0 0
vn -1 0 0
vn -1 0 0
vn -1 0 0
vn -1 0 0
vn -1 0 0
vn -1 0 0
vn -1 0 0
vn -1 0 0
vn 0 -0 1
vn 0 -0 1
vn 0 -0 1
vn 0 -0 1
vn 0 -0 1
vn 0 -0 1
vn 0 -0 1
vn 0 -0 1
vn 1 0 0
vn 1 0 0
vn 1 0 0
vn 1 0 0
vn 1 0 0
vn 1 0 0
vn 1 0 0
vn 1 0 0
g 
f 33//1 34//2 35//3 36//4
f 37//5 38//6 39//7 40//8
f 38//9 41//10 42//11 39//12
f 43//13 36//14 35//15 44//16
f 45//17 46//18 47//19 48//20
f 48//21 47//22 49//23 50//24
f 39//25 42//26 49//27 47//28
f 51//29 52//30 36//31 43//32
f 38//33 37//34 45//35 48//36
f 53//37 54//38 34//39 33//40
f 40//41 39//42 47//43 46//44
f 37//45 40//46 46//47 45//48
f 55//49 53//50 33//51 56//52
f 41//53 38//54 48//55 50//56
f 53//57 55//58 51//59 43//60
f 56//61 33//62 36//63 52//64
f 55//65 56//66 52//67 51//68
f 54//69 53//70 43//71 44//72
f 34//73 54//74 44//75 35//76
f 1//77 2//78 3//79 4//80
f 5//81 6//82 7//83 8//84
f 9//85 10//86 11//87 12//88
f 13//89 14//90 15//91 2//92
f 16//93 17//94 18//95 19//96
f 20//97 21//98 15//99 14//100
f 10//101 20//102 14//103 11//104
f 22//105 16//106 19//107 23//108
f 12//109 11//110 14//111 13//112
f 23//113 1//114 4//115 22//116
f 24//117 3//118 21//119 20//120
f 7//121 6//122 20//123 10//124
f 24//125 20//126 6//127 5//128
f 25//129 26//130 17//131 16//132
f 8//133 7//134 10//135 9//136
f 2//137 15//138 21//139 3//140
f 26//141 27//142 28//143 17//144
f 27//145 8//146 9//147 28//148
f 16//149 29//150 30//151 25//152
f 29//153 24//154 5//155 30//156
f 16//157 22//158 4//159 29//160
f 29//161 4//162 3//163 24//164
f 18//165 31//166 32//167 19//168
f 31//169 12//170 13//171 32//172
f 19//173 32//174 1//175 23//176
f 32//177 13//178 2//179 1//180
f 17//181 28//182 31//183 18//184
f 28//185 9//186 12//187 31//188
f 25//189 30//190 27//191 26//192
f 30//193 5//194 8//195 27//196
