# File exported by Houdini 17.5.173 (www.sidefx.com)
# 96 points
# 268 vertices
# 67 primitives
# Bounds: [-0.174997002, -0.0047960002, -2.5] to [2.04586291, 3.99520612, 2.5]
g 
v -0.0910110027 -0.00479499996 -2.5
v -0.0910110027 0.781819999 -2.5
v 0.0932250023 0.781819999 -2.5
v 0.0932250023 -0.00479499996 -2.5
v -0.0910110027 2.57428598 -2.5
v 0.0932250023 2.57428598 -2.5
v 0.0932250023 -0.00479499996 1.26028395
v 0.0932250023 -0.00479499996 2.5
v -0.0910110027 -0.00479499996 2.5
v -0.0910110027 -0.00479499996 1.26028395
v 0.0932260007 3.90316105 1.25691104
v 0.0932260007 3.903162 2.5
v 0.0932260007 2.57428598 2.5
v 0.0932260007 2.57428503 1.26028395
v 0.0932260007 3.903162 -1.24442303
v 0.0932260007 3.90316105 0.000554999977
v 0.0932250023 2.57428503 0.000554999977
v 0.0932250023 2.57428503 -1.24637306
v -0.0910110027 2.57428503 1.26028502
v -0.0910110027 2.57428503 0.000554999977
v 0.0932250023 0.781819999 2.5
v -0.0910110027 0.781819999 2.5
v -0.0910099968 2.57428598 2.5
v 0.0932250023 0.781819999 1.26028395
v -0.0910110027 0.781819999 1.26028502
v -0.0910099968 3.90316105 1.25691104
v -0.0910110027 3.90316105 0.000554999977
v -0.0910110027 0.781819999 -1.24637198
v -0.0910110027 -0.00479499996 -1.24637306
v 0.0932250023 -0.00479499996 -1.24637306
v 0.0932250023 0.781819999 -1.24637198
v -0.0910110027 2.57428503 -1.24637198
v 0.0932250023 3.90316105 -2.5
v -0.0910110027 3.903162 -1.24442196
v -0.0910110027 3.90316105 -2.5
v -0.0910099968 3.903162 2.5
v -0.00692600012 -0.00479499996 0.0100680003
v 2.04585791 -0.00479499996 0.0100680003
v 2.04586291 -0.00479499996 2.5
v -0.00692099985 -0.00479499996 2.5
v -0.00692600012 -0.00479499996 -2.5
v 2.04585791 -0.00479499996 -2.5
v -0.00692600012 0.112118997 0.0100680003
v -0.00692099985 0.112118997 2.5
v 2.04586291 0.112117998 2.5
v 2.04585791 0.112117998 0.0100680003
v -0.00692600012 0.112118997 -2.5
v 2.04585791 0.112117998 -2.5
v -0.147156999 3.903162 -1.30038702
v -0.147156 -0.00479499996 -1.30038798
v 0.149368003 -0.00479499996 -1.30038798
v 0.149368003 3.903162 -1.30038702
v 0.149368003 -0.00479400018 -1.24620104
v 0.149368003 3.903162 -1.24620104
v -0.147156999 3.903162 -1.24620104
v -0.147156 -0.00479400018 -1.24620104
v -0.147156999 3.903162 1.25304198
v -0.147156 -0.00479499996 1.25304103
v 0.149368003 -0.00479499996 1.25304103
v 0.149368003 3.903162 1.25304198
v 0.149368003 -0.00479400018 1.30722797
v 0.149368003 3.903162 1.30722797
v -0.147156999 3.903162 1.30722797
v -0.147156 -0.00479400018 1.30722797
v -0.147156999 2.60039997 1.26122999
v -0.147156 2.60040092 -1.24442303
v 0.149368003 2.60040092 -1.24442303
v 0.149368003 2.60039997 1.26122999
v 0.149368003 2.54621506 -1.24442303
v 0.149368003 2.5462141 1.26122999
v -0.147156999 2.5462141 1.26122999
v -0.147156 2.54621506 -1.24442303
v -0.147156999 3.903162 -2.29466105
v -0.147156 -0.00479499996 -2.294662
v 0.149368003 -0.00479499996 -2.294662
v 0.149368003 3.903162 -2.29466105
v 0.149368003 -0.00479400018 -2.24047494
v 0.149368003 3.903162 -2.24047399
v -0.147156999 3.903162 -2.24047399
v -0.147156 -0.00479400018 -2.24047494
v -0.147156999 3.903162 2.24969697
v -0.147156 -0.0047960002 2.24969697
v 0.149368003 -0.0047960002 2.24969697
v 0.149368003 3.903162 2.24969697
v 0.149368003 -0.00479499996 2.30388308
v 0.149368003 3.903162 2.30388403
v -0.147156999 3.903162 2.30388403
v -0.147156 -0.00479499996 2.30388308
v -0.174997002 3.903162 -2.5
v -0.174995005 3.903162 2.49977493
v 0.177208006 3.903162 2.49977493
v 0.177208006 3.903162 -2.5
v 0.177208006 3.99520493 2.49977493
v 0.177208006 3.99520612 -2.5
v -0.174997002 3.99520612 -2.5
v -0.174995005 3.99520493 2.49977493
vn 0 0 -1
vn 0 0 -1
vn 0 0 -1
vn 0 0 -1
vn 0 0 -1
vn 0 0 -1
vn 0 0 -1
vn 0 0 -1
vn 0 -1 -0
vn 0 -1 -0
vn 0 -1 -0
vn 0 -1 -0
vn 1 0 0
vn 1 0 0
vn 1 0 0
vn 1 0 0
vn 1 0 0
vn 1 0 0
vn 1 0 0
vn 1 0 0
vn 0 -1 -0
vn 0 -1 -0
vn 0 -1 -0
vn 0 -1 -0
vn 0 -0 1
vn 0 -0 1
vn 0 -0 1
vn 0 -0 1
vn 0 -0 1
vn 0 -0 1
vn 0 -0 1
vn 0 -0 1
vn 1 0 0
vn 1 0 0
vn 1 0 0
vn 1 0 0
vn -1 0 0
vn -1 0 0
vn -1 0 0
vn -1 0 0
vn -1 0 0
vn -1 0 0
vn -1 0 0
vn -1 0 0
vn 1 0 0
vn 1 0 0
vn 1 0 0
vn 1 0 0
vn -1 0 0
vn -1 0 0
vn -1 0 0
vn -1 0 0
vn 0 -0 1
vn 0 -0 1
vn 0 -0 1
vn 0 -0 1
vn 0 -0 1
vn 0 -0 1
vn 0 -0 1
vn 0 -0 1
vn 1 0 0
vn 1 0 0
vn 1 0 0
vn 1 0 0
vn 0 0 -1
vn 0 0 -1
vn 0 0 -1
vn 0 0 -1
vn 1 0 0
vn 1 0 0
vn 1 0 0
vn 1 0 0
vn -1 0 0
vn -1 0 0
vn -1 0 0
vn -1 0 0
vn -1 0 0
vn -1 0 0
vn -1 0 0
vn -1 0 0
vn 1 0 0
vn 1 0 0
vn 1 0 0
vn 1 0 0
vn 1 0 0
vn 1 0 0
vn 1 0 0
vn 1 0 0
vn 0 -1 -0
vn 0 -1 -0
vn 0 -1 -0
vn 0 -1 -0
vn -1 0 0
vn -1 0 0
vn -1 0 0
vn -1 0 0
vn 0 -1 -0
vn 0 -1 -0
vn 0 -1 -0
vn 0 -1 -0
vn 0 0 -1
vn 0 0 -1
vn 0 0 -1
vn 0 0 -1
vn 0 -0 1
vn 0 -0 1
vn 0 -0 1
vn 0 -0 1
vn -1 0 0
vn -1 0 0
vn -1 0 0
vn -1 0 0
vn -0 1 -0
vn -0 1 -0
vn -0 1 -0
vn -0 1 -0
vn -0 1 -0
vn -0 1 -0
vn -0 1 -0
vn -0 1 -0
vn -1 0 0
vn -1 0 0
vn -1 0 0
vn -1 0 0
vn -0 1 -0
vn -0 1 -0
vn -0 1 -0
vn -0 1 -0
vn 0 0 -1
vn 0 0 -1
vn 0 0 -1
vn 0 0 -1
vn -0 1 -0
vn -0 1 -0
vn -0 1 -0
vn -0 1 -0
vn 0 -1 -0
vn 0 -1 -0
vn 0 -1 -0
vn 0 -1 -0
vn 0 -1 -0
vn 0 -1 -0
vn 0 -1 -0
vn 0 -1 -0
vn -0 1 -0
vn -0 1 -0
vn -0 1 -0
vn -0 1 -0
vn -0 1 -0
vn -0 1 -0
vn -0 1 -0
vn -0 1 -0
vn -1 0 0
vn -1 0 0
vn -1 0 0
vn -1 0 0
vn 0 0 -1
vn 0 0 -1
vn 0 0 -1
vn 0 0 -1
vn 0 -0 1
vn 0 -0 1
vn 0 -0 1
vn 0 -0 1
vn 1 0 0
vn 1 0 0
vn 1 0 0
vn 1 0 0
vn 1 0 0
vn 1 0 0
vn 1 0 0
vn 1 0 0
vn -1 0 0
vn -1 0 0
vn -1 0 0
vn -1 0 0
vn 1 0 0
vn 1 0 0
vn 1 0 0
vn 1 0 0
vn 0 -0 1
vn 0 -0 1
vn 0 -0 1
vn 0 -0 1
vn 0 0 -1
vn 0 0 -1
vn 0 0 -1
vn 0 0 -1
vn -1 0 0
vn -1 0 0
vn -1 0 0
vn -1 0 0
vn 1 0 0
vn 1 0 0
vn 1 0 0
vn 1 0 0
vn 0 -0 1
vn 0 -0 1
vn 0 -0 1
vn 0 -0 1
vn 0 0 -1
vn 0 0 -1
vn 0 0 -1
vn 0 0 -1
vn -1 0 0
vn -1 0 0
vn -1 0 0
vn -1 0 0
vn 1 0 0
vn 1 0 0
vn 1 0 0
vn 1 0 0
vn 0 -1 -0
vn 0 -1 -0
vn 0 -1 -0
vn 0 -1 -0
vn -0 1 -0
vn -0 1 -0
vn -0 1 -0
vn -0 1 -0
vn -1 0 0
vn -1 0 0
vn -1 0 0
vn -1 0 0
vn 1 0 0
vn 1 0 0
vn 1 0 0
vn 1 0 0
vn 0 -0 1
vn 0 -0 1
vn 0 -0 1
vn 0 -0 1
vn 0 0 -1
vn 0 0 -1
vn 0 0 -1
vn 0 0 -1
vn -1 0 0
vn -1 0 0
vn -1 0 0
vn -1 0 0
vn 1 0 0
vn 1 0 0
vn 1 0 0
vn 1 0 0
vn 0 -0 1
vn 0 -0 1
vn 0 -0 1
vn 0 -0 1
vn 0 0 -1
vn 0 0 -1
vn 0 0 -1
vn 0 0 -1
vn -1 0 0
vn -1 0 0
vn -1 0 0
vn -1 0 0
vn 1 0 0
vn 1 0 0
vn 1 0 0
vn 1 0 0
vn -0 1 -0
vn -0 1 -0
vn -0 1 -0
vn -0 1 -0
vn 0 -1 -0
vn 0 -1 -0
vn 0 -1 -0
vn 0 -1 -0
g 
f 1//1 2//2 3//3 4//4
f 2//5 5//6 6//7 3//8
f 7//9 8//10 9//11 10//12
f 11//13 12//14 13//15 14//16
f 15//17 16//18 17//19 18//20
f 19//21 20//22 17//23 14//24
f 9//25 8//26 21//27 22//28
f 22//29 21//30 13//31 23//32
f 14//33 13//34 21//35 24//36
f 25//37 22//38 23//39 19//40
f 10//41 9//42 22//43 25//44
f 24//45 21//46 8//47 7//48
f 20//49 19//50 26//51 27//52
f 28//53 29//54 30//55 31//56
f 31//57 18//58 32//59 28//60
f 16//61 11//62 14//63 17//64
f 19//65 14//66 24//67 25//68
f 6//69 18//70 31//71 3//72
f 2//73 28//74 32//75 5//76
f 1//77 29//78 28//79 2//80
f 3//81 31//82 30//83 4//84
f 33//85 15//86 18//87 6//88
f 4//89 30//90 29//91 1//92
f 5//93 32//94 34//95 35//96
f 32//97 18//98 17//99 20//100
f 25//101 24//102 7//103 10//104
f 23//105 13//106 12//107 36//108
f 32//109 20//110 27//111 34//112
f 15//113 33//114 35//115 34//116
f 15//117 34//118 27//119 16//120
f 19//121 23//122 36//123 26//124
f 27//125 26//126 11//127 16//128
f 5//129 35//130 33//131 6//132
f 26//133 36//134 12//135 11//136
f 37//137 38//138 39//139 40//140
f 41//141 42//142 38//143 37//144
f 43//145 44//146 45//147 46//148
f 47//149 43//150 46//151 48//152
f 37//153 40//154 44//155 43//156
f 42//157 41//158 47//159 48//160
f 40//161 39//162 45//163 44//164
f 39//165 38//166 46//167 45//168
f 38//169 42//170 48//171 46//172
f 56//173 55//174 49//175 50//176
f 54//177 53//178 51//179 52//180
f 54//181 55//182 56//183 53//184
f 52//185 51//186 50//187 49//188
f 64//189 63//190 57//191 58//192
f 62//193 61//194 59//195 60//196
f 62//197 63//198 64//199 61//200
f 60//201 59//202 58//203 57//204
f 72//205 71//206 65//207 66//208
f 70//209 69//210 67//211 68//212
f 70//213 71//214 72//215 69//216
f 68//217 67//218 66//219 65//220
f 80//221 79//222 73//223 74//224
f 78//225 77//226 75//227 76//228
f 78//229 79//230 80//231 77//232
f 76//233 75//234 74//235 73//236
f 88//237 87//238 81//239 82//240
f 86//241 85//242 83//243 84//244
f 86//245 87//246 88//247 85//248
f 84//249 83//250 82//251 81//252
f 96//253 95//254 89//255 90//256
f 94//257 93//258 91//259 92//260
f 94//261 95//262 96//263 93//264
f 92//265 91//266 90//267 89//268
