# File exported by Houdini 17.5.173 (www.sidefx.com)
# 122 points
# 302 vertices
# 76 primitives
# Bounds: [-2.48657393, -1.01104796, -2.53785205] to [7.55855179, 5.23168802, 7.59903479]
g 
v 1 0.00144999998 -2.52946901
v 5.33300018 -0.00284299999 -2.52946901
v 5.317101 0.00145099999 0.0178539995
v 5.317101 0.00145099999 5.37102509
v 0.0248029996 0.00144999998 5.37102509
v -2.48656797 0.00144999998 5.32195902
v -3.79999983e-05 0.00144999998 -4.99999987e-06
v -2.48656797 0.00144999998 1
v 1 0.00144999998 -2.52946901
v 1 3.99715805 -2.52946901
v -3.89999987e-05 3.99715805 -4.99999987e-06
v -3.79999983e-05 0.00144999998 -4.99999987e-06
v -2.48656797 3.99715805 1
v -2.48656797 0.00144999998 1
v -2.16703105 5.23168802 -2.52946711
v -2.16904211 5.23168802 -2.16900492
v -2.48656702 5.23168802 -2.16217399
v -2.48656797 2.74344301 1
v 1 2.74344397 -2.52946901
v -3.79999983e-05 2.74344397 -4.99999987e-06
v 1 3.70408201 -2.53060198
v -2.48656797 3.70408201 1
v -3.89999987e-05 3.70408201 -4.99999987e-06
v -2.38660097 3.64981103 0.988543987
v -2.38660097 2.79771399 0.988543987
v -0.142939001 3.64981198 0.0591869988
v -0.142939001 2.79771399 0.0591869988
v 7.54510784 -1.01104701 0.0439359993
v 7.54510784 -1.01104701 2.51953292
v 2.28063393 2.07586598 -2.53785205
v 0.999957025 2.57555509 -2.52946997
v 5.33300018 -0.00284299999 -2.52946901
v 4.63049603 0.429302007 -2.52946901
v 5.317101 0.0128070004 2.51953697
v 4.63049603 0.448731989 2.5298779
v 5.317101 0.0128060002 0.0439409986
v 4.63049603 0.429302007 0.0439420007
v 7.54510784 -1.01104701 -2.52947497
v 6.65807676 -0.820181012 -2.52947092
v 6.70884705 -0.820181012 0.0439379998
v 6.02282476 -0.403687 -2.52946997
v 6.02282476 -0.403687 0.0439390019
v 6.70884705 -0.820181012 2.51953506
v 6.02282476 -0.403685987 2.51953602
v 2.28063393 2.07587004 0.0774720013
v 0.0370290019 2.56717205 -0.00602999981
v 3.67354393 1.10702097 -2.52946901
v 3.67354393 1.107023 0.0607069992
v 3.67354393 1.10702503 2.53630304
v 2.28958607 1.86375105 2.05151105
v 0.087330997 -1.01104796 7.54996681
v -2.48656297 -1.01104701 7.54996681
v 2.562922 0.0128049999 5.37100983
v 2.56292105 0.429302007 4.68440485
v -2.48656797 -0.00284299999 5.32195902
v -2.48656797 0.429302007 4.63535404
v 0.0873249993 0.0128049999 5.37101698
v 0.0873249993 0.429300994 4.684412
v 2.56292701 -1.01104701 7.54996681
v 2.5629251 -0.820181012 6.73737001
v 0.0873280019 -0.820182025 6.73737907
v 2.56292295 -0.403687 6.07673502
v 0.0873270035 -0.403688014 6.07674122
v -2.48656702 -0.820182025 6.68832016
v -2.48656702 -0.403687 6.02768421
v -2.48656797 2.57555509 1.00481606
v -2.48656797 2.07586598 2.28549194
v 2.54615593 1.10702002 3.72745204
v 0.0705590025 1.10702205 3.72745895
v 0.0537949987 2.07586598 2.28549194
v -2.48656797 1.10702097 3.67840195
v 7.54510784 -0.991617024 5.14480305
v 7.55855179 -0.991616011 7.59903479
v 7.52768183 -0.991616011 7.59903479
v 5.30078983 0.00758400001 5.40475607
v 4.61306381 0.448733002 4.63829899
v 5.317101 0.0128070004 2.51953697
v 5.317101 0.00758400001 5.40475607
v 4.63049603 0.448733002 4.63829899
v 5.317101 0.0322370008 4.02810478
v 4.63049603 0.448733002 3.58408809
v 7.54510784 -1.01104701 2.51953292
v 6.70884705 -0.820181012 2.51953506
v 6.70884705 -0.800750971 4.68684101
v 6.02282476 -0.403685987 2.51953602
v 6.02282476 -0.384256005 4.34592104
v 6.70884705 -0.800750017 6.80385113
v 6.66603613 -0.800750017 6.80385208
v 6.02282476 -0.384256005 6.12200785
v 6.0053978 -0.384256005 6.12200785
v 7.54510784 -0.966585994 7.38349104
v 7.55854511 -1.01104701 7.59900713
v 2.56293106 -1.01104701 7.54996681
v 5.317101 0.0379320011 5.13160992
v 4.61306381 0.448733002 4.42278194
v 5.317101 0.0379320011 5.34712601
v 2.56292796 0.0128049999 5.37100983
v 6.72337818 -0.828294992 6.73237324
v 2.56292892 -0.828294992 6.73238182
v 6.02282476 -0.359995991 6.02283096
v 2.56292796 -0.403687 6.07673502
v 6.72337723 -0.828294992 6.51685476
v 6.02282476 -0.359995991 5.80731392
v -2.48657393 5.23168802 -2.16217399
v 1.45903504 4.01278591 -2.52947092
v 1.60633302 4.01278591 1.46388805
v -2.16904092 5.23168802 -2.16900492
v -0.846698999 4.88242483 -0.983621001
v -0.993996978 4.88242483 -2.52947092
v -2.16703105 5.23168802 -2.52946711
v 0.592400014 4.21343279 -2.52947092
v -0.117141001 4.46139622 -2.52947092
v 0.660613 4.21343422 0.646315992
v 0.0301569998 4.46139717 -0.179624006
v -2.48656797 4.01278591 1.46389794
v -2.48656702 4.88242483 -0.98913902
v -2.48656702 4.21343279 0.597257972
v -2.48656702 4.46139622 -0.112282999
v 0.965879023 2.7764039 -2.4427011
v 0.039326001 2.7764039 -0.086811997
v 0.979856014 3.67112088 -2.4437561
v 0.039326001 3.67112207 -0.086811997
vn 0.954400003 -0.00680000009 0.298299998
vn 0.954400003 -0.00680000009 0.298299998
vn 0.954400003 -0.00680000009 0.298299998
vn 0.954400003 -0.00680000009 0.298299998
vn -9.99999975e-05 -1 0.000199999995
vn 0 -1 -0
vn 0 -1 -0
vn 0 -1 -0
vn -0.00039999999 -1 0.00079999998
vn -0.000199999995 -1 0.00039999999
vn -9.99999975e-05 -1 0.000199999995
vn -0.00039999999 -1 0.00079999998
vn -0.000199999995 -1 0.00039999999
vn 0 -1 -0
vn 0 -1 -0
vn -9.99999975e-05 -1 0.000199999995
vn 0.113899998 0 0.993499994
vn 0.113899998 0 0.993499994
vn 0.113899998 0 0.993499994
vn 0.113899998 0 0.993499994
vn 0.92869997 0.0511000007 0.367399991
vn 0.930000007 -0.000699999975 0.367599994
vn 0.930000007 -0.000699999975 0.367599994
vn 0.922200024 0.0276999995 0.385600001
vn 0.377200007 0.0269000009 0.925700009
vn 0.373100013 -0 0.9278
vn 0.373100013 -0 0.9278
vn 0.37349999 0.0658000037 0.925300002
vn 0.372700006 0.918900013 0.129199997
vn 0.372700006 0.918900013 0.129199997
vn 0.372700006 0.918900013 0.129199997
vn 0.372700006 0.918900013 0.129199997
vn 0.133300006 0.918900013 0.371300012
vn 0.133300006 0.918900013 0.371300012
vn 0.133300006 0.918900013 0.371300012
vn 0.133300006 0.918900013 0.371300012
vn 0.373100013 -0 0.9278
vn 0.377200007 -0.0269000009 0.925700009
vn 0.37349999 -0.0658000037 0.925300002
vn 0.373100013 -0 0.9278
vn 0.930000007 0 0.367700011
vn 0.929899991 -0.0131000001 0.367500007
vn 0.922699988 -0.00789999962 0.385500014
vn 0.930000007 0 0.367700011
vn 0.377200007 0.0269000009 0.925700009
vn 0.37349999 0.0658000037 0.925300002
vn 0.365700006 0.249699995 0.896600008
vn 0.375499994 0.149700001 0.914699972
vn 0.377200007 -0.0269000009 0.925700009
vn 0.377200007 0.0269000009 0.925700009
vn 0.375499994 0.149700001 0.914699972
vn 0.375499994 -0.149700001 0.914699972
vn 0.37349999 -0.0658000037 0.925300002
vn 0.377200007 -0.0269000009 0.925700009
vn 0.375499994 -0.149700001 0.914699972
vn 0.365700006 -0.249699995 0.896600008
vn 0.92869997 0.0511000007 0.367399991
vn 0.922200024 0.0276999995 0.385600001
vn 0.91049999 0.157299995 0.382499993
vn 0.897000015 0.261799991 0.35620001
vn 0.922699988 -0.00789999962 0.385500014
vn 0.929899991 -0.0131000001 0.367500007
vn 0.9278 -0.0736000016 0.36590001
vn 0.921800017 -0.0439000018 0.38530001
vn 0.922200024 0.0276999995 0.385600001
vn 0.922699988 -0.00789999962 0.385500014
vn 0.921800017 -0.0439000018 0.38530001
vn 0.91049999 0.157299995 0.382499993
vn 0.524399996 0.851499975 -0.00219999999
vn 0.521300018 0.853399992 -0.00100000005
vn 0.521300018 0.853399992 -0.00100000005
vn 0.524399996 0.851499975 -0.00219999999
vn 0.219400004 0.975600004 -0.00109999999
vn 0.216299996 0.976300001 -0.00209999993
vn 0.216299996 0.976300001 -0.00209999993
vn 0.219400004 0.975600004 -0.00109999999
vn 0.52609998 0.850399971 -0.00260000001
vn 0.533299983 0.845899999 -0.00529999984
vn 0.533299983 0.845899999 -0.00529999984
vn 0.52609998 0.850399971 -0.00260000001
vn 0.506799996 0.862100005 -0.000500000024
vn 0.505400002 0.862900019 -0.00109999999
vn 0.505400002 0.862900019 -0.00109999999
vn 0.506799996 0.862100005 -0.000500000024
vn 0.269300014 0.961700022 0.0520000011
vn 0.269300014 0.961700022 0.0520000011
vn 0.269300014 0.961700022 0.0520000011
vn 0.269300014 0.961700022 0.0520000011
vn 0.575200021 0.818000019 -0.00159999996
vn 0.577899992 0.816100001 -0
vn 0.574500024 0.818499982 -0
vn 0.56129998 0.827499986 0.00899999961
vn 0.56129998 0.827499986 0.00899999961
vn 0.574500024 0.818499982 -0
vn 0.57099998 0.820900023 -0
vn 0.547500014 0.836600006 0.0195000004
vn 0.552200019 0.833599985 0.0124000004
vn 0.56129998 0.827499986 0.00899999961
vn 0.547500014 0.836600006 0.0195000004
vn 0.522599995 0.851700008 0.0395000018
vn 0.569599986 0.82190001 -0.00159999996
vn 0.575200021 0.818000019 -0.00159999996
vn 0.56129998 0.827499986 0.00899999961
vn 0.552200019 0.833599985 0.0124000004
vn 0.508300006 0.861199975 -0
vn 0.506799996 0.862100005 -0.000500000024
vn 0.506799996 0.862100005 -0.000500000024
vn 0.508300006 0.861199975 -0
vn 0.518999994 0.854799986 -0
vn 0.52609998 0.850399971 -0.00260000001
vn 0.52609998 0.850399971 -0.00260000001
vn 0.518999994 0.854799986 -0
vn 0.222499996 0.974900007 0
vn 0.219400004 0.975600004 -0.00109999999
vn 0.219400004 0.975600004 -0.00109999999
vn 0.222499996 0.974900007 0
vn 0.527400017 0.849600017 -0.00329999998
vn 0.524399996 0.851499975 -0.00219999999
vn 0.524399996 0.851499975 -0.00219999999
vn 0.527400017 0.849600017 -0.00329999998
vn -0.00620000018 0.858099997 0.513400018
vn 0 0.858099997 0.513499975
vn 0 0.855000019 0.518599987
vn -0.00630000001 0.852800012 0.522199988
vn -0.00109999999 0.97420001 0.225500003
vn 0 0.973500013 0.228699997
vn 0 0.973500013 0.228699997
vn -0.00109999999 0.974300027 0.225500003
vn -0.00510000018 0.845899999 0.533299983
vn 0 0.845899999 0.533299983
vn 0 0.845899999 0.533299983
vn -0.00510000018 0.845899999 0.533299983
vn -0.00609999988 0.863300025 0.504700005
vn 0 0.861199975 0.508300006
vn 0 0.858099997 0.513499975
vn -0.00620000018 0.858099997 0.513400018
vn -0.00540000014 0.815999985 0.578000009
vn 0.00260000001 0.816100001 0.577899992
vn 0.0273000002 0.836700022 0.546999991
vn 0.0118000004 0.834699988 0.550599992
vn 0.0118000004 0.834699988 0.550599992
vn 0.0273000002 0.836700022 0.546999991
vn 0.0631999969 0.875500023 0.479000002
vn 0.0291000009 0.852199972 0.522400022
vn -0.00820000004 0.820800006 0.571099997
vn 0.0118000004 0.834699988 0.550599992
vn 0.0291000009 0.852199972 0.522400022
vn -0.00540000014 0.825500011 0.564300001
vn -0.0110999998 0.815999985 0.578000009
vn -0.00540000014 0.815999985 0.578000009
vn 0.0118000004 0.834699988 0.550599992
vn -0.00820000004 0.820800006 0.571099997
vn 0.0548 0.962199986 0.2667
vn 0.0548 0.962199986 0.2667
vn 0.0548 0.962199986 0.2667
vn 0.0548 0.962199986 0.2667
vn -0.0121999998 0.8653 0.501100004
vn -0.00609999988 0.863300025 0.504700005
vn -0.00620000018 0.858099997 0.513400018
vn -0.0124000004 0.85799998 0.513499975
vn -0.0102000004 0.845899999 0.533299983
vn -0.00510000018 0.845899999 0.533299983
vn -0.00510000018 0.845899999 0.533299983
vn -0.0102000004 0.845899999 0.533299983
vn -0.00209999993 0.975000024 0.222299993
vn -0.00109999999 0.97420001 0.225500003
vn -0.00109999999 0.974300027 0.225500003
vn -0.00209999993 0.975000024 0.222299993
vn -0.0124000004 0.85799998 0.513499975
vn -0.00620000018 0.858099997 0.513400018
vn -0.00630000001 0.852800012 0.522199988
vn -0.0126 0.850600004 0.525699973
vn -0 0.866699994 0.498800009
vn -0 0.866699994 0.498800009
vn -0 0.866699994 0.498800009
vn -0 0.866699994 0.498800009
vn 0.528900027 0.848699987 -0.00639999984
vn 0.528900027 0.848699987 -0.00639999984
vn 0.528900027 0.848699987 -0.00639999984
vn 0.528900027 0.848699987 -0.00639999984
vn 0.222399995 0.974900007 -0.00310000009
vn 0.224600002 0.974399984 -0.00789999962
vn 0.224600002 0.974399984 -0.00789999962
vn 0.223399997 0.974699974 -0.00540000014
vn 0.515200019 0.856999993 -0.00520000001
vn 0.520500004 0.853900015 -0.00829999987
vn 0.520500004 0.853900015 -0.00829999987
vn 0.524100006 0.851599991 -0.00300000003
vn 0.509899974 0.860199988 -0.00999999978
vn 0.509899974 0.860199988 -0.00999999978
vn 0.509899974 0.860199988 -0.00999999978
vn 0.509899974 0.860199988 -0.00999999978
vn 0 0.97240001 0.233400002
vn 0 0.97240001 0.233400002
vn 0 0.97240001 0.233400002
vn 0 0.97240001 0.233400002
vn 0 0.853399992 0.521300018
vn 0 0.853399992 0.521300018
vn 0 0.853399992 0.521300018
vn 0 0.853399992 0.521300018
vn -0 0.877600014 0.479400009
vn -0 0.877600014 0.479400009
vn -0 0.877600014 0.479400009
vn -0 0.877600014 0.479400009
vn 0.504000008 0.863699973 0
vn 0.504000008 0.863699973 0
vn 0.504000008 0.863699973 0
vn 0.504000008 0.863699973 0
vn -0.00190000003 0.860400021 0.509599984
vn -0.00159999996 0.861599982 0.507600009
vn -0.000500000024 0.860099971 0.510200024
vn -0.000500000024 0.860099971 0.510200024
vn -0.00109999999 0.977100015 0.212599993
vn -0.00109999999 0.977100015 0.212599993
vn -0.00109999999 0.977100015 0.212599993
vn -0.00109999999 0.977100015 0.212599993
vn -0.000899999985 0.836700022 0.547699988
vn -0.000899999985 0.836700022 0.547699988
vn -0.000699999975 0.836199999 0.548399985
vn -0.000899999985 0.836700022 0.547699988
vn -0.00319999992 0.860700011 0.50910002
vn -0.00400000019 0.860800028 0.508899987
vn -0.00159999996 0.861599982 0.507600009
vn -0.00190000003 0.860400021 0.509599984
vn 0.0879999995 0.991100013 0.0995000005
vn 0.0879999995 0.991100013 0.0995000005
vn 0.0879999995 0.991100013 0.0995000005
vn 0.0879999995 0.991100013 0.0995000005
vn 0.555700004 0.831399977 -0
vn 0.555700004 0.831399977 -0
vn 0.555700004 0.831399977 -0
vn 0.555700004 0.831399977 -0
vn 0.4912 0.871100008 0
vn 0.4912 0.871100008 0
vn 0.4912 0.871100008 0
vn 0.4912 0.871100008 0
vn 0.493200004 0.869899988 0.00680000009
vn 0.493200004 0.869899988 0.00680000009
vn 0.493200004 0.869899988 0.00680000009
vn 0.493200004 0.869899988 0.00680000009
vn 0.518999994 0.854799986 -0
vn 0.515200019 0.856999993 -0.00520000001
vn 0.524100006 0.851599991 -0.00300000003
vn 0.518999994 0.854799986 -0
vn 0.221300006 0.975199997 -0.000699999975
vn 0.222399995 0.974900007 -0.00310000009
vn 0.223399997 0.974699974 -0.00540000014
vn 0.221300006 0.975199997 -0.000699999975
vn 0.524200022 0.851499975 0.00860000029
vn 0.524200022 0.851499975 0.00860000029
vn 0.524200022 0.851499975 0.00860000029
vn 0.524200022 0.851499975 0.00860000029
vn 0.0273000002 0.836700022 0.546999991
vn 0.00260000001 0.816100001 0.577899992
vn 0.00520000001 0.816100001 0.577899992
vn 0.00520000001 0.816100001 0.577899992
vn 0.569599986 0.82190001 -0.00159999996
vn 0.552200019 0.833599985 0.0124000004
vn 0.566799998 0.823899984 -0
vn 0.566799998 0.823899984 -0
vn 0.213499993 0.955799997 0.202099994
vn 0.213499993 0.955799997 0.202099994
vn 0.213499993 0.955799997 0.202099994
vn 0.158399999 0.974399984 0.159700006
vn 0.158399999 0.974399984 0.159700006
vn 0.158399999 0.974399984 0.159700006
vn 0.158399999 0.974399984 0.159700006
vn 0.357499987 0.870500028 0.33829999
vn 0.357499987 0.870500028 0.33829999
vn 0.357499987 0.870500028 0.33829999
vn 0.00340000005 0.930700004 0.365700006
vn 0.0057000001 0.914200008 0.405200005
vn 0.000199999995 0.958899975 0.283899993
vn 0.000199999995 0.958899975 0.283899993
vn -0.00159999996 0.972599983 0.232600003
vn -0.00159999996 0.972599983 0.232600003
vn -0.00159999996 0.972599983 0.232600003
vn -0.00159999996 0.972599983 0.232600003
vn 0.00100000005 0.951699972 0.307000011
vn 0.00100000005 0.951699972 0.307000011
vn 0.00120000006 0.951399982 0.307799995
vn 0.00100000005 0.951699972 0.307000011
vn 0.00659999996 0.895399988 0.445100009
vn 0.00579999993 0.895500004 0.444999993
vn 0.0057000001 0.914200008 0.405200005
vn 0.00340000005 0.930700004 0.365700006
vn 0.445100009 0.894800007 -0.0337000005
vn 0.445100009 0.894800007 -0.0337000005
vn 0.445100009 0.894800007 -0.0337000005
vn 0.445100009 0.894800007 -0.0337000005
vn 0.354499996 0.934899986 -0.0137999998
vn 0.350300014 0.936600029 -0.0108000003
vn 0.357499987 0.933899999 -0.00949999969
vn 0.354499996 0.934899986 -0.0137999998
vn 0.218999997 0.975700021 -0.00659999996
vn 0.218999997 0.975700021 -0.00659999996
vn 0.218999997 0.975700021 -0.00659999996
vn 0.218999997 0.975700021 -0.00659999996
vn 0.278899997 0.960099995 -0.0212999992
vn 0.278899997 0.960099995 -0.0212999992
vn 0.278899997 0.960099995 -0.0212999992
vn 0.278899997 0.960099995 -0.0212999992
g 
f 19//1 21//2 121//3 119//4
f 7//5 5//6 6//7 8//8
f 2//9 3//10 7//11 1//12
f 3//13 4//14 5//15 7//16
f 22//17 18//18 25//19 24//20
f 21//21 10//22 11//23 23//24
f 23//25 11//26 13//27 22//28
f 11//29 10//30 15//31 16//32
f 13//33 11//34 16//35 17//36
f 12//37 20//38 18//39 14//40
f 9//41 19//42 20//43 12//44
f 23//45 22//46 24//47 26//48
f 20//49 23//50 26//51 27//52
f 18//53 20//54 27//55 25//56
f 21//57 23//58 122//59 121//60
f 20//61 19//62 119//63 120//64
f 23//65 20//66 120//67 122//68
f 36//69 32//70 33//71 37//72
f 28//73 38//74 39//75 40//76
f 40//77 39//78 41//79 42//80
f 42//81 41//82 32//83 36//84
f 45//85 30//86 31//87 46//88
f 37//89 33//90 47//91 48//92
f 48//93 47//94 30//95 45//96
f 49//97 48//98 45//99 50//100
f 35//101 37//102 48//103 49//104
f 44//105 42//106 36//107 34//108
f 43//109 40//110 42//111 44//112
f 29//113 28//114 40//115 43//116
f 34//117 36//118 37//119 35//120
f 57//121 53//122 54//123 58//124
f 51//125 59//126 60//127 61//128
f 61//129 60//130 62//131 63//132
f 63//133 62//134 53//135 57//136
f 58//137 54//138 68//139 69//140
f 69//141 68//142 50//143 70//144
f 71//145 69//146 70//147 67//148
f 56//149 58//150 69//151 71//152
f 67//153 70//154 46//155 66//156
f 65//157 63//158 57//159 55//160
f 64//161 61//162 63//163 65//164
f 52//165 51//166 61//167 64//168
f 55//169 57//170 58//171 56//172
f 75//173 78//174 79//175 76//176
f 80//177 77//178 35//179 81//180
f 72//181 82//182 83//183 84//184
f 84//185 83//186 85//187 86//188
f 86//189 85//190 77//191 80//192
f 74//193 73//194 87//195 88//196
f 88//197 87//198 89//199 90//200
f 90//201 89//202 78//203 75//204
f 96//205 94//206 95//207 76//208
f 97//209 96//210 76//211 54//212
f 93//213 92//214 98//215 99//216
f 99//217 98//218 100//219 101//220
f 101//221 100//222 96//223 97//224
f 92//225 91//226 102//227 98//228
f 98//229 102//230 103//231 100//232
f 100//233 103//234 94//235 96//236
f 89//237 86//238 80//239 78//240
f 87//241 84//242 86//243 89//244
f 73//245 72//246 84//247 87//248
f 78//249 80//250 81//251 79//252
f 68//253 54//254 76//255 79//256
f 35//257 49//258 79//259 81//260
f 68//261 79//262 49//263
f 45//264 46//265 70//266 50//267
f 50//268 68//269 49//270
f 116//271 108//272 107//273 104//274
f 115//275 106//276 113//277 117//278
f 117//279 113//280 114//281 118//282
f 118//283 114//284 108//285 116//286
f 114//287 112//288 109//289 108//290
f 113//291 111//292 112//293 114//294
f 106//295 105//296 111//297 113//298
f 108//299 109//300 110//301 107//302
