# File exported by Houdini 17.5.173 (www.sidefx.com)
# 68 points
# 247 vertices
# 62 primitives
# Bounds: [-2.50388503, -0.0973270014, -2.5035789] to [0.994539022, 0.768932998, 0.99979502]
g 
v 0.790320992 -0.0415429994 -2.50329804
v 0.790320992 0.138870001 -2.50329804
v 0.994539022 0.138870001 -2.50329804
v 0.994539022 -0.0415429994 -2.50329804
v 0.056237001 -0.0415429994 -0.140431002
v 0.056237001 0.138870001 -0.140431002
v -0.00556300022 0.138870001 0.00156400003
v -0.00556300022 -0.0415429994 0.00156400003
v -2.3800509 -0.0415429994 0.958886027
v -2.3800509 0.138870001 0.958886027
v -2.49934292 0.138870001 0.99979502
v -2.49934292 -0.0415429994 0.99979502
v -2.49934292 -0.0973270014 0.99979502
v -2.3800509 -0.0973270014 0.958886027
v 0.879058003 0.138870001 -2.2347331
v 0.674839973 0.138870001 -2.2347331
v -1.97383106 0.138870001 -2.50162292
v -2.00331807 0.138870001 -2.25536895
v -2.28884506 -0.0415429994 0.823455989
v -0.208958998 -0.0415429994 -0.140431002
v -0.208958998 -0.0973270014 -0.140431002
v -2.27794099 -0.0973270014 0.83513999
v -0.208958998 0.138870001 0.0838460028
v -0.208958998 -0.0415429994 0.0838460028
v -2.27794099 0.138870001 0.918864012
v -2.27794099 -0.0415429994 0.918864012
v -1.97383106 -0.0415429994 -2.50162292
v -0.208958998 -0.0973270014 0.0838460028
v -0.00556300022 -0.0973270014 0.00156400003
v 0.623615026 -0.0415429994 -2.2347331
v -2.024966 -0.0363310017 -2.09420395
v -2.00331807 -0.0973270014 -2.25536895
v 0.674840987 -0.0973270014 -2.2347331
v 0.879058003 -0.0415429994 -2.2347331
v 0.056237001 -0.0973270014 -0.140431002
v 0.879058003 -0.0973270014 -2.2347331
v -0.208958998 0.138870001 -0.140431002
v -2.27794099 0.138870001 0.83513999
v -2.3800509 0.138870001 0.875162005
v -2.49934292 0.138870001 0.916070998
v -2.20879292 0.138870001 -1.99867201
v -2.49910593 0.138870001 -1.96845996
v -2.49934292 -0.0415429994 0.916070998
v -2.49910593 -0.0415429994 -1.96845996
v -2.3800509 -0.0973270014 0.875162005
v -2.49934292 -0.0973270014 0.916070998
v -2.27794099 -0.0973270014 0.918864012
v 0.790320992 -0.0973270014 -2.50329804
v -1.97383106 -0.0973270014 -2.50162292
v 0.994539022 -0.0973270014 -2.50329804
v -2.20879292 -0.0973270014 -1.99867201
v -2.49910593 -0.0973270014 -1.96845996
v -2.50388503 0.662796974 -1.96288705
v -2.20644403 0.667685986 -1.98703206
v -2.15727711 0.667685986 -1.898525
v -2.49928188 0.662796974 -1.86175394
v -2.50388503 0.764042974 -1.96288705
v -2.20644403 0.768931985 -1.98703206
v -2.49928188 0.764042974 -1.86175394
v -2.15727711 0.768931985 -1.898525
v -1.99931097 0.667686999 -2.25421691
v -1.96228397 0.662796974 -2.49880004
v -1.86115003 0.662796974 -2.5035789
v -1.91354096 0.667686999 -2.20041609
v -1.99931097 0.768932998 -2.25421691
v -1.96228397 0.764042974 -2.49880004
v -1.91354096 0.768932998 -2.20041609
v -1.86115003 0.764042974 -2.5035789
vn 0 0 -1
vn 0 0 -1
vn 0 0 -1
vn 0 0 -1
vn 0.916899979 0 0.399100006
vn 0.916899979 0 0.399100006
vn 0.916899979 0 0.399100006
vn 0.916899979 0 0.399100006
vn 0.324400008 0 0.945900023
vn 0.324400008 0 0.945900023
vn 0.324400008 0 0.945900023
vn 0.324400008 0 0.945900023
vn 0.324400008 0 0.945900023
vn 0.324400008 0 0.945900023
vn 0.324400008 0 0.945900023
vn 0.324400008 0 0.945900023
vn -0 1 -0
vn -0 1 -0
vn -0 1 -0
vn -0 1 -0
vn -0 1 -0
vn -0 1 -0
vn -0 1 -0
vn -0 1 -0
vn -0.41960001 -0.135000005 -0.897599995
vn -0.41960001 -0.135000005 -0.897599995
vn -0.41960001 -0.135000005 -0.897599995
vn -0.41960001 -0.135000005 -0.897599995
vn 0.375 0 0.926999986
vn 0.375 0 0.926999986
vn 0.375 0 0.926999986
vn 0.375 0 0.926999986
vn 0.374300003 0 0.927299976
vn 0.374300003 0 0.927299976
vn 0.374300003 0 0.927299976
vn 0.374300003 0 0.927299976
vn -0.000600000028 0 -1
vn -0.000600000028 0 -1
vn -0.000600000028 0 -1
vn -0.000600000028 0 -1
vn 0.375 0 0.926999986
vn 0.375 0 0.926999986
vn 0.375 0 0.926999986
vn 0.375 0 0.926999986
vn -0.00139999995 -1 -0.00139999995
vn -0.00139999995 -1 -0.00139999995
vn -0.00139999995 -1 -0.00139999995
vn -0.00139999995 -1 -0.00139999995
vn 0.0125000002 -0.806999981 0.590399981
vn 0.0125000002 -0.806999981 0.590399981
vn 0.0125000002 -0.806999981 0.590399981
vn 0.0125000002 -0.806999981 0.590399981
vn 0.930700004 0 0.365700006
vn 0.930700004 0 0.365700006
vn 0.930700004 0 0.365700006
vn 0.930700004 0 0.365700006
vn -0 1 -0
vn -0 1 -0
vn -0 1 -0
vn -0 1 -0
vn -0 1 -0
vn -0 1 -0
vn -0 1 -0
vn -0 1 -0
vn -0 1 -0
vn -0 1 -0
vn -0 1 -0
vn -0 1 -0
vn -0 1 -0
vn -0 1 -0
vn -0 1 -0
vn -0 1 -0
vn -0 1 -0
vn -0 1 -0
vn -0 1 -0
vn -0 1 -0
vn -0 1 -0
vn -0 1 -0
vn -0 1 -0
vn -0 1 -0
vn 0.98299998 0.1611 0.0882000029
vn 0.98299998 0.1611 0.0882000029
vn 0.98299998 0.1611 0.0882000029
vn 0.98299998 0.1611 0.0882000029
vn 0.916899979 0 0.399100006
vn 0.916899979 0 0.399100006
vn 0.916899979 0 0.399100006
vn 0.916899979 0 0.399100006
vn -1 0 0
vn -1 0 0
vn -1 0 0
vn -1 0 0
vn -1 0 -9.99999975e-05
vn -1 0 -9.99999975e-05
vn -1 0 -9.99999975e-05
vn -1 0 -9.99999975e-05
vn 0.91869998 0 0.395000011
vn 0.91869998 0 0.395000011
vn 0.91869998 0 0.395000011
vn 0.91869998 0 0.395000011
vn 0.930700004 0 0.365700006
vn 0.930700004 0 0.365700006
vn 0.930700004 0 0.365700006
vn 0.930700004 0 0.365700006
vn 0 -1 0
vn 0 -1 0
vn 0 -1 0
vn 0 -1 0
vn 0 -1 0
vn 0 -1 0
vn 0 -1 0
vn 0 -1 0
vn 0 -1 0
vn 0 -1 0
vn 0 -1 0
vn 0 -1 0
vn 0 -1 0
vn 0 -1 0
vn 0 -1 0
vn 0 -1 0
vn 0 -1 0
vn 0 -1 0
vn 0 -1 0
vn 0 -1 0
vn 0 -1 0
vn 0 -1 0
vn 0 -1 0
vn 0 -1 0
vn 0 -1 0
vn 0 -1 0
vn 0 -1 0
vn 0 -1 0
vn 0.374300003 0 0.927299976
vn 0.374300003 0 0.927299976
vn 0.374300003 0 0.927299976
vn 0.374300003 0 0.927299976
vn -1 0 0
vn -1 0 0
vn -1 0 0
vn -1 0 0
vn -1 0 -9.99999975e-05
vn -1 0 -9.99999975e-05
vn -1 0 -9.99999975e-05
vn -1 0 -9.99999975e-05
vn 0.91869998 0 0.395000011
vn 0.91869998 0 0.395000011
vn 0.91869998 0 0.395000011
vn 0.91869998 0 0.395000011
vn -0.851700008 -0.391000003 -0.349000007
vn -0.851700008 -0.391000003 -0.349000007
vn -0.851700008 -0.391000003 -0.349000007
vn -0.851700008 -0.391000003 -0.349000007
vn 0 0 -1
vn 0 0 -1
vn 0 0 -1
vn 0 0 -1
vn -0.000600000028 0 -1
vn -0.000600000028 0 -1
vn -0.000600000028 0 -1
vn -0.000600000028 0 -1
vn 0 -1 0
vn 0 -1 0
vn 0 -1 0
vn 0 -1 0
vn 0 -1 0
vn 0 -1 0
vn 0 -1 0
vn 0 -1 0
vn -0 1 -0
vn -0 1 -0
vn -0 1 -0
vn -0 1 -0
vn -0 1 -0
vn -0 1 -0
vn -0 1 -0
vn -0 1 -0
vn 0 0 1
vn 0 0 1
vn 0 0 1
vn 0.364899993 0 0.930999994
vn 0.364899993 0 0.930999994
vn 0.364899993 0 0.930999994
vn 0.364899993 0 0.930999994
vn 0.364899993 0 0.930999994
vn 0.364899993 0 0.930999994
vn 0.364899993 0 0.930999994
vn 0.364899993 0 0.930999994
vn -0.992900014 0 -0.118900001
vn -0.992900014 0 -0.118900001
vn -0.992900014 0 -0.118900001
vn -0.992900014 0 -0.118900001
vn -0.780700028 0 -0.624899983
vn -0.780700028 0 -0.624899983
vn -0.780700028 0 -0.624899983
vn -0.780700028 0 -0.624899983
vn -0.103500001 0 -0.994599998
vn -0.103500001 0 -0.994599998
vn -0.103500001 0 -0.994599998
vn -0.103500001 0 -0.994599998
vn 0.0148999998 -0.999899983 -0.00419999985
vn 0.0148999998 -0.999899983 -0.00419999985
vn 0.0148999998 -0.999899983 -0.00419999985
vn 0.0148999998 -0.999899983 -0.00419999985
vn -0.0808999985 0 -0.996699989
vn -0.0808999985 0 -0.996699989
vn -0.0808999985 0 -0.996699989
vn -0.0808999985 0 -0.996699989
vn -0.0148999998 0.999899983 0.00419999985
vn -0.0148999998 0.999899983 0.00419999985
vn -0.0148999998 0.999899983 0.00419999985
vn -0.0148999998 0.999899983 0.00419999985
vn 0.106899999 0 0.994300008
vn 0.106899999 0 0.994300008
vn 0.106899999 0 0.994300008
vn 0.106899999 0 0.994300008
vn -0.00449999981 -0.999800026 0.0171000008
vn -0.00449999981 -0.999800026 0.0171000008
vn -0.00449999981 -0.999800026 0.0171000008
vn -0.00449999981 -0.999800026 0.0171000008
vn -0.988699973 0 -0.149700001
vn -0.988699973 0 -0.149700001
vn -0.988699973 0 -0.149700001
vn -0.988699973 0 -0.149700001
vn 0.00449999981 0.999800026 -0.0171000008
vn 0.00449999981 0.999800026 -0.0171000008
vn 0.00449999981 0.999800026 -0.0171000008
vn 0.00449999981 0.999800026 -0.0171000008
vn 0.985400021 0 0.170300007
vn 0.985400021 0 0.170300007
vn 0.985400021 0 0.170300007
vn 0.985400021 0 0.170300007
vn 0.778100014 0 0.628199995
vn 0.778100014 0 0.628199995
vn 0.778100014 0 0.628199995
vn 0.778100014 0 0.628199995
vn -0 1 -0
vn -0 1 -0
vn -0 1 -0
vn -0 1 -0
vn -0.790300012 0 -0.612699986
vn -0.790300012 0 -0.612699986
vn -0.790300012 0 -0.612699986
vn -0.790300012 0 -0.612699986
vn 0 -1 0
vn 0 -1 0
vn 0 -1 0
vn 0 -1 0
g 
f 1//1 2//2 3//3 4//4
f 5//5 6//6 7//7 8//8
f 9//9 10//10 11//11 12//12
f 9//13 12//14 13//15 14//16
f 15//17 3//18 2//19 16//20
f 16//21 2//22 17//23 18//24
f 19//25 20//26 21//27 22//28
f 8//29 7//30 23//31 24//32
f 24//33 23//34 25//35 26//36
f 27//37 17//38 2//39 1//40
f 8//41 24//42 28//43 29//44
f 30//45 20//46 19//47 31//48
f 30//49 31//50 32//51 33//52
f 34//53 5//54 35//55 36//56
f 23//57 37//58 38//59 25//60
f 37//61 16//62 18//63 38//64
f 7//65 6//66 37//67 23//68
f 6//69 15//70 16//71 37//72
f 10//73 39//74 40//75 11//76
f 39//77 41//78 42//79 40//80
f 31//81 19//82 22//83 32//84
f 5//85 8//86 29//87 35//88
f 12//89 11//90 40//91 43//92
f 43//93 40//94 42//95 44//96
f 4//97 3//98 15//99 34//100
f 34//101 15//102 6//103 5//104
f 45//105 14//106 13//107 46//108
f 35//109 29//110 28//111 21//112
f 21//113 28//114 47//115 22//116
f 48//117 33//118 32//119 49//120
f 50//121 36//122 33//123 48//124
f 36//125 35//126 21//127 33//128
f 51//129 45//130 46//131 52//132
f 24//133 26//134 47//135 28//136
f 12//137 43//138 46//139 13//140
f 43//141 44//142 52//143 46//144
f 4//145 34//146 36//147 50//148
f 20//149 30//150 33//151 21//152
f 1//153 4//154 50//155 48//156
f 27//157 1//158 48//159 49//160
f 32//161 22//162 45//163 51//164
f 22//165 47//166 14//167 45//168
f 38//169 18//170 41//171 39//172
f 25//173 38//174 39//175 10//176
f 27//177 49//178 17//179
f 26//180 9//181 14//182 47//183
f 26//184 25//185 10//186 9//187
f 17//188 49//189 32//190 18//191
f 41//192 18//193 32//194 51//195
f 42//196 41//197 51//198 52//199
f 53//200 54//201 55//202 56//203
f 57//204 58//205 54//206 53//207
f 59//208 60//209 58//210 57//211
f 56//212 55//213 60//214 59//215
f 61//216 62//217 63//218 64//219
f 65//220 66//221 62//222 61//223
f 67//224 68//225 66//226 65//227
f 64//228 63//229 68//230 67//231
f 55//232 64//233 67//234 60//235
f 60//236 67//237 65//238 58//239
f 58//240 65//241 61//242 54//243
f 54//244 61//245 64//246 55//247
