# File exported by Houdini 17.5.173 (www.sidefx.com)
# 210 points
# 580 vertices
# 145 primitives
# Bounds: [-2.5, -1.07092404, -4.9837718] to [2.54665804, 4.28599691, 5.07524586]
g 
v 2.54665804 -0.409557998 5
v 2.54665804 -0.179408997 5
v -2.45923591 -0.179408997 5.00000095
v -2.45923591 -0.409557998 5.00000095
v -2.45923591 -0.179408997 4.66031122
v 2.54665804 -0.179408997 4.66031122
v -2.45923591 -0.409557998 4.66031122
v 2.54665804 -0.409557998 4.66031122
v 2.54665804 -0.409557998 0.158599004
v 2.54665804 -0.179408997 0.158599004
v -2.45923591 -0.179408997 0.158599004
v -2.45923591 -0.409557998 0.158599004
v -2.45923591 -0.179408997 -0.181089997
v 2.54665804 -0.179408997 -0.181089997
v -2.45923591 -0.409557998 -0.181089997
v 2.54665804 -0.409557998 -0.181089997
v 2.54665804 -0.409557015 -4.6236701
v 2.54665804 -0.179407999 -4.6236701
v -2.45923591 -0.179407999 -4.6236701
v -2.45923591 -0.409557015 -4.6236701
v -2.45923591 -0.179407999 -4.96335888
v 2.54665804 -0.179407999 -4.96335888
v -2.45923591 -0.409557015 -4.96335888
v 2.54665804 -0.409557015 -4.96335888
v 2.14093709 -0.976405025 4.80619907
v 2.14093709 -0.976405025 5.03634787
v 2.14093709 -0.180195004 5.03634787
v 2.14093709 -0.180195004 4.80619907
v 2.48062491 -0.180195004 5.03634787
v 2.48062491 -0.180195004 4.80619907
v 2.48062491 -0.976405025 5.03634787
v 2.48062491 -0.976405025 4.80619907
v -0.141547993 -0.976405025 4.80619907
v -0.141547993 -0.976405025 5.03634787
v -0.141547993 -0.180195004 5.03634787
v -0.141547993 -0.180195004 4.80619907
v 0.198139995 -0.180195004 5.03634787
v 0.198139995 -0.180195004 4.80619907
v 0.198139995 -0.976405025 5.03634787
v 0.198139995 -0.976405025 4.80619907
v -2.5 -0.976405025 4.80619907
v -2.5 -0.976405025 5.03634787
v -2.5 -0.180195004 5.03634787
v -2.5 -0.180195004 4.80619907
v -2.16031003 -0.180195004 5.03634787
v -2.16031003 -0.180195004 4.80619907
v -2.16031003 -0.976405025 5.03634787
v -2.16031003 -0.976405025 4.80619907
v -2.5 -1.07092297 -4.97109985
v -2.5 -1.07092297 -4.74095201
v -2.5 -0.180193007 -4.74095201
v -2.5 -0.180193007 -4.97109985
v -2.16031003 -0.180193007 -4.74095201
v -2.16031003 -0.180193007 -4.97109985
v -2.16031003 -1.07092297 -4.74095201
v -2.16031003 -1.07092297 -4.97109985
v -0.141547993 -1.07092297 -4.97109985
v -0.141547993 -1.07092297 -4.74095201
v -0.141547993 -0.180193007 -4.74095201
v -0.141547993 -0.180193007 -4.97109985
v 0.198139995 -0.180193007 -4.74095201
v 0.198139995 -0.180193007 -4.97109985
v 0.198139995 -1.07092297 -4.74095201
v 0.198139995 -1.07092297 -4.97109985
v 2.14093709 -1.07092297 -4.97109985
v 2.14093709 -1.07092297 -4.74095201
v 2.14093709 -0.180193007 -4.74095201
v 2.14093709 -0.180193007 -4.97109985
v 2.48062491 -0.180193007 -4.74095201
v 2.48062491 -0.180193007 -4.97109985
v 2.48062491 -1.07092297 -4.74095201
v 2.48062491 -1.07092297 -4.97109985
v 2.14093709 -1.07092404 -2.31824207
v 2.14093709 -1.07092404 -2.08809209
v 2.14093709 1.03544104 -2.08809209
v 2.14093709 1.03544104 -2.31824088
v 2.48062491 1.03544104 -2.08809209
v 2.48062491 1.03544104 -2.31824088
v 2.48062491 -1.07092404 -2.08809209
v 2.48062491 -1.07092404 -2.31824207
v -0.141547993 -1.07092404 -2.31824207
v -0.141547993 -1.07092404 -2.08809209
v -0.141547993 1.03544104 -2.08809209
v -0.141547993 1.03544104 -2.31824088
v 0.198139995 1.03544104 -2.08809209
v 0.198139995 1.03544104 -2.31824088
v 0.198139995 -1.07092404 -2.08809209
v 0.198139995 -1.07092404 -2.31824207
v -2.5 -1.07092404 -2.31824207
v -2.5 -1.07092404 -2.08809209
v -2.5 1.03544104 -2.08809209
v -2.5 1.03544104 -2.31824088
v -2.16031003 1.03544104 -2.08809209
v -2.16031003 1.03544104 -2.31824088
v -2.16031003 -1.07092404 -2.08809209
v -2.16031003 -1.07092404 -2.31824207
v -2.5 -0.976405025 1.99076998
v -2.5 -0.976405025 2.22091794
v -2.5 1.12995994 2.22091889
v -2.5 1.12995994 1.99076998
v -2.16031003 1.12995994 2.22091889
v -2.16031003 1.12995994 1.99076998
v -2.16031003 -0.976405025 2.22091794
v -2.16031003 -0.976405025 1.99076998
v -0.141547993 -0.976405025 1.99076998
v -0.141547993 -0.976405025 2.22091794
v -0.141547993 1.12995994 2.22091889
v -0.141547993 1.12995994 1.99076998
v 0.198139995 1.12995994 2.22091889
v 0.198139995 1.12995994 1.99076998
v 0.198139995 -0.976405025 2.22091794
v 0.198139995 -0.976405025 1.99076998
v 2.14093709 -0.976405025 1.99076998
v 2.14093709 -0.976405025 2.22091794
v 2.14093709 1.12995994 2.22091889
v 2.14093709 1.12995994 1.99076998
v 2.48062491 1.12995994 2.22091889
v 2.48062491 1.12995994 1.99076998
v 2.48062491 -0.976405025 2.22091794
v 2.48062491 -0.976405025 1.99076998
v 2.14093709 -0.976404011 -0.112218
v 2.14093709 -0.976404011 0.117931001
v 2.14093709 3.8102181 0.117932998
v 2.14093709 3.8102181 -0.112216003
v 2.48062491 3.8102181 0.117932998
v 2.48062491 3.8102181 -0.112216003
v 2.48062491 -0.976404011 0.117931001
v 2.48062491 -0.976404011 -0.112218
v -0.141547993 -0.976404011 -0.112218
v -0.141547993 -0.976404011 0.117931001
v -0.141547993 3.8102181 0.117932998
v -0.141547993 3.8102181 -0.112216003
v 0.198139995 3.8102181 0.117932998
v 0.198139995 3.8102181 -0.112216003
v 0.198139995 -0.976404011 0.117931001
v 0.198139995 -0.976404011 -0.112218
v -2.5 -0.976404011 -0.112218
v -2.5 -0.976404011 0.117931001
v -2.5 3.8102181 0.117932998
v -2.5 3.8102181 -0.112216003
v -2.16031003 3.8102181 0.117932998
v -2.16031003 3.8102181 -0.112216003
v -2.16031003 -0.976404011 0.117931001
v -2.16031003 -0.976404011 -0.112218
v -2.5 -0.409559011 5.03173494
v -2.5 -0.179408997 5.03173494
v -2.5 -0.179407999 -4.93999195
v -2.5 -0.409557015 -4.93999195
v -2.16031003 -0.179407999 -4.93999195
v -2.16031003 -0.409557015 -4.93999195
v -2.16031003 -0.179408997 5.03173494
v -2.16031003 -0.409559011 5.03173494
v -0.141547993 -0.409559011 5.03173494
v -0.141547993 -0.179408997 5.03173494
v -0.141547993 -0.179407999 -4.93999195
v -0.141547993 -0.409557015 -4.93999195
v 0.198139995 -0.179407999 -4.93999195
v 0.198139995 -0.409557015 -4.93999195
v 0.198139995 -0.179408997 5.03173494
v 0.198139995 -0.409559011 5.03173494
v 2.14093709 -0.409559011 5.03173494
v 2.14093709 -0.179408997 5.03173494
v 2.14093709 -0.179407999 -4.93999195
v 2.14093709 -0.409557015 -4.93999195
v 2.48062491 -0.179407999 -4.93999195
v 2.48062491 -0.409557015 -4.93999195
v 2.48062491 -0.179408997 5.03173494
v 2.48062491 -0.409559011 5.03173494
v 2.14093709 0.830586016 2.06591892
v 2.14093709 1.06073499 2.06591892
v 2.14093709 1.06073594 -2.29047704
v 2.14093709 0.830587029 -2.29047704
v 2.48062491 1.06073594 -2.29047704
v 2.48062491 0.830587029 -2.29047704
v 2.48062491 1.06073499 2.06591892
v 2.48062491 0.830586016 2.06591892
v -0.141547993 0.830586016 2.06591892
v -0.141547993 1.06073499 2.06591892
v -0.141547993 1.06073594 -2.29047704
v -0.141547993 0.830587029 -2.29047704
v 0.198139995 1.06073594 -2.29047704
v 0.198139995 0.830587029 -2.29047704
v 0.198139995 1.06073499 2.06591892
v 0.198139995 0.830586016 2.06591892
v -2.5 0.830586016 2.06591892
v -2.5 1.06073499 2.06591892
v -2.5 1.06073594 -2.29047704
v -2.5 0.830587029 -2.29047704
v -2.16031003 1.06073594 -2.29047704
v -2.16031003 0.830587029 -2.29047704
v -2.16031003 1.06073499 2.06591892
v -2.16031003 0.830586016 2.06591892
v 2.50000596 1.36492395 1.82704699
v -2.49587893 1.36492395 1.82704699
v -2.49587798 0.620662987 3.23368502
v 2.50000691 0.620662987 3.23368502
v 2.5 0.620664001 -3.23368001
v -2.4958849 0.620664001 -3.2336781
v -2.49588299 1.368469 -1.70864606
v 2.50000095 1.368469 -1.70864701
v -2.49588299 4.28599691 0.000361000013
v 2.50000501 4.28599691 0.000360000005
v -2.49587798 -0.149673998 5.07524586
v 2.50000691 -0.149673998 5.0752449
v 2.5 -0.149670005 -4.9837718
v -2.4958849 -0.149670005 -4.98376989
v 2.50001788 4.28599691 -0.134955004
v 2.50001788 4.28599691 0.127118006
v -2.49588203 4.28599691 0.127118006
v -2.49588203 4.28599691 -0.134955004
vn 0 0 1
vn 0 0 1
vn 0 0 1
vn 0 0 1
vn 0 1 0
vn 0 1 0
vn 0 1 0
vn 0 1 0
vn -0 -1 -0
vn -0 -1 -0
vn -0 -1 -0
vn -0 -1 -0
vn 0 0 -1
vn 0 0 -1
vn 0 0 -1
vn 0 0 -1
vn 0 0 1
vn 0 0 1
vn 0 0 1
vn 0 0 1
vn 0 1 0
vn 0 1 0
vn 0 1 0
vn 0 1 0
vn -0 -1 -0
vn -0 -1 -0
vn -0 -1 -0
vn -0 -1 -0
vn 0 0 -1
vn 0 0 -1
vn 0 0 -1
vn 0 0 -1
vn 0 0 1
vn 0 0 1
vn 0 0 1
vn 0 0 1
vn 0 1 0
vn 0 1 0
vn 0 1 0
vn 0 1 0
vn -0 -1 -0
vn -0 -1 -0
vn -0 -1 -0
vn -0 -1 -0
vn 0 0 -1
vn 0 0 -1
vn 0 0 -1
vn 0 0 -1
vn -1 0 0
vn -1 0 0
vn -1 0 0
vn -1 0 0
vn 0 1 0
vn 0 1 0
vn 0 1 0
vn 0 1 0
vn 1 0 0
vn 1 0 0
vn 1 0 0
vn 1 0 0
vn -0 -1 -0
vn -0 -1 -0
vn -0 -1 -0
vn -0 -1 -0
vn 0 0 -1
vn 0 0 -1
vn 0 0 -1
vn 0 0 -1
vn 0 0 1
vn 0 0 1
vn 0 0 1
vn 0 0 1
vn -1 0 0
vn -1 0 0
vn -1 0 0
vn -1 0 0
vn 0 1 0
vn 0 1 0
vn 0 1 0
vn 0 1 0
vn 1 0 0
vn 1 0 0
vn 1 0 0
vn 1 0 0
vn -0 -1 -0
vn -0 -1 -0
vn -0 -1 -0
vn -0 -1 -0
vn 0 0 -1
vn 0 0 -1
vn 0 0 -1
vn 0 0 -1
vn 0 0 1
vn 0 0 1
vn 0 0 1
vn 0 0 1
vn -1 0 0
vn -1 0 0
vn -1 0 0
vn -1 0 0
vn 0 1 0
vn 0 1 0
vn 0 1 0
vn 0 1 0
vn 1 0 0
vn 1 0 0
vn 1 0 0
vn 1 0 0
vn -0 -1 -0
vn -0 -1 -0
vn -0 -1 -0
vn -0 -1 -0
vn 0 0 -1
vn 0 0 -1
vn 0 0 -1
vn 0 0 -1
vn 0 0 1
vn 0 0 1
vn 0 0 1
vn 0 0 1
vn -1 0 0
vn -1 0 0
vn -1 0 0
vn -1 0 0
vn 0 1 0
vn 0 1 0
vn 0 1 0
vn 0 1 0
vn 1 0 0
vn 1 0 0
vn 1 0 0
vn 1 0 0
vn -0 -1 -0
vn -0 -1 -0
vn -0 -1 -0
vn -0 -1 -0
vn 0 0 -1
vn 0 0 -1
vn 0 0 -1
vn 0 0 -1
vn 0 0 1
vn 0 0 1
vn 0 0 1
vn 0 0 1
vn -1 0 0
vn -1 0 0
vn -1 0 0
vn -1 0 0
vn 0 1 0
vn 0 1 0
vn 0 1 0
vn 0 1 0
vn 1 0 0
vn 1 0 0
vn 1 0 0
vn 1 0 0
vn -0 -1 -0
vn -0 -1 -0
vn -0 -1 -0
vn -0 -1 -0
vn 0 0 -1
vn 0 0 -1
vn 0 0 -1
vn 0 0 -1
vn 0 0 1
vn 0 0 1
vn 0 0 1
vn 0 0 1
vn -1 0 0
vn -1 0 0
vn -1 0 0
vn -1 0 0
vn 0 1 0
vn 0 1 0
vn 0 1 0
vn 0 1 0
vn 1 0 0
vn 1 0 0
vn 1 0 0
vn 1 0 0
vn -0 -1 -0
vn -0 -1 -0
vn -0 -1 -0
vn -0 -1 -0
vn 0 0 -1
vn 0 0 -1
vn 0 0 -1
vn 0 0 -1
vn 0 0 1
vn 0 0 1
vn 0 0 1
vn 0 0 1
vn -1 0 0
vn -1 0 0
vn -1 0 0
vn -1 0 0
vn 0 1 0
vn 0 1 0
vn 0 1 0
vn 0 1 0
vn 1 0 0
vn 1 0 0
vn 1 0 0
vn 1 0 0
vn -0 -1 -0
vn -0 -1 -0
vn -0 -1 -0
vn -0 -1 -0
vn 0 0 -1
vn 0 0 -1
vn 0 0 -1
vn 0 0 -1
vn 0 0 1
vn 0 0 1
vn 0 0 1
vn 0 0 1
vn -1 0 0
vn -1 0 0
vn -1 0 0
vn -1 0 0
vn 0 1 0
vn 0 1 0
vn 0 1 0
vn 0 1 0
vn 1 0 0
vn 1 0 0
vn 1 0 0
vn 1 0 0
vn -0 -1 -0
vn -0 -1 -0
vn -0 -1 -0
vn -0 -1 -0
vn 0 0 -1
vn 0 0 -1
vn 0 0 -1
vn 0 0 -1
vn 0 0 1
vn 0 0 1
vn 0 0 1
vn 0 0 1
vn -1 0 0
vn -1 0 0
vn -1 0 0
vn -1 0 0
vn 0 1 0
vn 0 1 0
vn 0 1 0
vn 0 1 0
vn 1 0 0
vn 1 0 0
vn 1 0 0
vn 1 0 0
vn -0 -1 -0
vn -0 -1 -0
vn -0 -1 -0
vn -0 -1 -0
vn 0 0 -1
vn 0 0 -1
vn 0 0 -1
vn 0 0 -1
vn 0 0 1
vn 0 0 1
vn 0 0 1
vn 0 0 1
vn -1 0 0
vn -1 0 0
vn -1 0 0
vn -1 0 0
vn 0 1 0
vn 0 1 0
vn 0 1 0
vn 0 1 0
vn 1 0 0
vn 1 0 0
vn 1 0 0
vn 1 0 0
vn -0 -1 -0
vn -0 -1 -0
vn -0 -1 -0
vn -0 -1 -0
vn 0 0 -1
vn 0 0 -1
vn 0 0 -1
vn 0 0 -1
vn 0 0 1
vn 0 0 1
vn 0 0 1
vn 0 0 1
vn -1 0 0
vn -1 0 0
vn -1 0 0
vn -1 0 0
vn 0 1 0
vn 0 1 0
vn 0 1 0
vn 0 1 0
vn 1 0 0
vn 1 0 0
vn 1 0 0
vn 1 0 0
vn -0 -1 -0
vn -0 -1 -0
vn -0 -1 -0
vn -0 -1 -0
vn 0 0 -1
vn 0 0 -1
vn 0 0 -1
vn 0 0 -1
vn 0 0 1
vn 0 0 1
vn 0 0 1
vn 0 0 1
vn -1 0 0
vn -1 0 0
vn -1 0 0
vn -1 0 0
vn 0 1 0
vn 0 1 0
vn 0 1 0
vn 0 1 0
vn 1 0 0
vn 1 0 0
vn 1 0 0
vn 1 0 0
vn -0 -1 -0
vn -0 -1 -0
vn -0 -1 -0
vn -0 -1 -0
vn 0 0 -1
vn 0 0 -1
vn 0 0 -1
vn 0 0 -1
vn 0 0 1
vn 0 0 1
vn 0 0 1
vn 0 0 1
vn -1 0 0
vn -1 0 0
vn -1 0 0
vn -1 0 0
vn 0 1 0
vn 0 1 0
vn 0 1 0
vn 0 1 0
vn 1 0 0
vn 1 0 0
vn 1 0 0
vn 1 0 0
vn -0 -1 -0
vn -0 -1 -0
vn -0 -1 -0
vn -0 -1 -0
vn 0 0 -1
vn 0 0 -1
vn 0 0 -1
vn 0 0 -1
vn 0 0 1
vn 0 0 1
vn 0 0 1
vn 0 0 1
vn -1 0 0
vn -1 0 0
vn -1 0 0
vn -1 0 0
vn 0 1 0
vn 0 1 0
vn 0 1 0
vn 0 1 0
vn 1 0 0
vn 1 0 0
vn 1 0 0
vn 1 0 0
vn -0 -1 -0
vn -0 -1 -0
vn -0 -1 -0
vn -0 -1 -0
vn 0 0 -1
vn 0 0 -1
vn 0 0 -1
vn 0 0 -1
vn 0 0 1
vn 0 0 1
vn 0 0 1
vn 0 0 1
vn -1 0 0
vn -1 0 0
vn -1 0 0
vn -1 0 0
vn 0 1 0
vn 0 1 0
vn 0 1 0
vn 0 1 0
vn 1 0 0
vn 1 0 0
vn 1 0 0
vn 1 0 0
vn -0 -1 -0
vn -0 -1 -0
vn -0 -1 -0
vn -0 -1 -0
vn 0 0 -1
vn 0 0 -1
vn 0 0 -1
vn 0 0 -1
vn 0 0 1
vn 0 0 1
vn 0 0 1
vn 0 0 1
vn -1 0 0
vn -1 0 0
vn -1 0 0
vn -1 0 0
vn 0 0 -1
vn 0 0 -1
vn 0 0 -1
vn 0 0 -1
vn 1 0 0
vn 1 0 0
vn 1 0 0
vn 1 0 0
vn 0 0 1
vn 0 0 1
vn 0 0 1
vn 0 0 1
vn -0 -1 -0
vn -0 -1 -0
vn -0 -1 -0
vn -0 -1 -0
vn 0 1 0
vn 0 1 0
vn 0 1 0
vn 0 1 0
vn -1 0 0
vn -1 0 0
vn -1 0 0
vn -1 0 0
vn 0 0 -1
vn 0 0 -1
vn 0 0 -1
vn 0 0 -1
vn 1 0 0
vn 1 0 0
vn 1 0 0
vn 1 0 0
vn 0 0 1
vn 0 0 1
vn 0 0 1
vn 0 0 1
vn -0 -1 -0
vn -0 -1 -0
vn -0 -1 -0
vn -0 -1 -0
vn 0 1 0
vn 0 1 0
vn 0 1 0
vn 0 1 0
vn -1 0 0
vn -1 0 0
vn -1 0 0
vn -1 0 0
vn 0 0 -1
vn 0 0 -1
vn 0 0 -1
vn 0 0 -1
vn 1 0 0
vn 1 0 0
vn 1 0 0
vn 1 0 0
vn 0 0 1
vn 0 0 1
vn 0 0 1
vn 0 0 1
vn -0 -1 -0
vn -0 -1 -0
vn -0 -1 -0
vn -0 -1 -0
vn 0 1 0
vn 0 1 0
vn 0 1 0
vn 0 1 0
vn -1 0 0
vn -1 0 0
vn -1 0 0
vn -1 0 0
vn 0 0 -1
vn 0 0 -1
vn 0 0 -1
vn 0 0 -1
vn 1 0 0
vn 1 0 0
vn 1 0 0
vn 1 0 0
vn 0 0 1
vn 0 0 1
vn 0 0 1
vn 0 0 1
vn -0 -1 -0
vn -0 -1 -0
vn -0 -1 -0
vn -0 -1 -0
vn 0 1 0
vn 0 1 0
vn 0 1 0
vn 0 1 0
vn -1 0 0
vn -1 0 0
vn -1 0 0
vn -1 0 0
vn 0 0 -1
vn 0 0 -1
vn 0 0 -1
vn 0 0 -1
vn 1 0 0
vn 1 0 0
vn 1 0 0
vn 1 0 0
vn 0 0 1
vn 0 0 1
vn 0 0 1
vn 0 0 1
vn -0 -1 -0
vn -0 -1 -0
vn -0 -1 -0
vn -0 -1 -0
vn 0 1 0
vn 0 1 0
vn 0 1 0
vn 0 1 0
vn -1 0 0
vn -1 0 0
vn -1 0 0
vn -1 0 0
vn 0 0 -1
vn 0 0 -1
vn 0 0 -1
vn 0 0 -1
vn 1 0 0
vn 1 0 0
vn 1 0 0
vn 1 0 0
vn 0 0 1
vn 0 0 1
vn 0 0 1
vn 0 0 1
vn -0 -1 -0
vn -0 -1 -0
vn -0 -1 -0
vn -0 -1 -0
vn 0 1 0
vn 0 1 0
vn 0 1 0
vn 0 1 0
vn 0 0.883899987 0.467700005
vn 0 0.883899987 0.467700005
vn 0 0.883899987 0.467700005
vn 0 0.883899987 0.467700005
vn -0 0.897899985 -0.440299988
vn -0 0.897899985 -0.440299988
vn -0 0.897899985 -0.440299988
vn -0 0.897899985 -0.440299988
vn -0 0.505400002 -0.862900019
vn -0 0.505400002 -0.862900019
vn -0 0.505400002 -0.862900019
vn -0 0.505400002 -0.862900019
vn 0 0.530200005 0.847899973
vn 0 0.530200005 0.847899973
vn 0 0.530200005 0.847899973
vn 0 0.530200005 0.847899973
vn 0 0.922500014 0.385899991
vn 0 0.922500014 0.385899991
vn 0 0.922500014 0.385899991
vn 0 0.922500014 0.385899991
vn -0 0.915300012 -0.40290001
vn -0 0.915300012 -0.40290001
vn -0 0.915300012 -0.40290001
vn -0 0.915300012 -0.40290001
vn -0 -1 -0
vn -0 -1 -0
vn -0 -1 -0
vn -0 -1 -0
g 
f 1//1 2//2 3//3 4//4
f 5//5 3//6 2//7 6//8
f 4//9 7//10 8//11 1//12
f 7//13 5//14 6//15 8//16
f 9//17 10//18 11//19 12//20
f 13//21 11//22 10//23 14//24
f 12//25 15//26 16//27 9//28
f 15//29 13//30 14//31 16//32
f 17//33 18//34 19//35 20//36
f 21//37 19//38 18//39 22//40
f 20//41 23//42 24//43 17//44
f 23//45 21//46 22//47 24//48
f 25//49 26//50 27//51 28//52
f 28//53 27//54 29//55 30//56
f 30//57 29//58 31//59 32//60
f 32//61 31//62 26//63 25//64
f 28//65 30//66 32//67 25//68
f 29//69 27//70 26//71 31//72
f 33//73 34//74 35//75 36//76
f 36//77 35//78 37//79 38//80
f 38//81 37//82 39//83 40//84
f 40//85 39//86 34//87 33//88
f 36//89 38//90 40//91 33//92
f 37//93 35//94 34//95 39//96
f 41//97 42//98 43//99 44//100
f 44//101 43//102 45//103 46//104
f 46//105 45//106 47//107 48//108
f 48//109 47//110 42//111 41//112
f 44//113 46//114 48//115 41//116
f 45//117 43//118 42//119 47//120
f 49//121 50//122 51//123 52//124
f 52//125 51//126 53//127 54//128
f 54//129 53//130 55//131 56//132
f 56//133 55//134 50//135 49//136
f 52//137 54//138 56//139 49//140
f 53//141 51//142 50//143 55//144
f 57//145 58//146 59//147 60//148
f 60//149 59//150 61//151 62//152
f 62//153 61//154 63//155 64//156
f 64//157 63//158 58//159 57//160
f 60//161 62//162 64//163 57//164
f 61//165 59//166 58//167 63//168
f 65//169 66//170 67//171 68//172
f 68//173 67//174 69//175 70//176
f 70//177 69//178 71//179 72//180
f 72//181 71//182 66//183 65//184
f 68//185 70//186 72//187 65//188
f 69//189 67//190 66//191 71//192
f 73//193 74//194 75//195 76//196
f 76//197 75//198 77//199 78//200
f 78//201 77//202 79//203 80//204
f 80//205 79//206 74//207 73//208
f 76//209 78//210 80//211 73//212
f 77//213 75//214 74//215 79//216
f 81//217 82//218 83//219 84//220
f 84//221 83//222 85//223 86//224
f 86//225 85//226 87//227 88//228
f 88//229 87//230 82//231 81//232
f 84//233 86//234 88//235 81//236
f 85//237 83//238 82//239 87//240
f 89//241 90//242 91//243 92//244
f 92//245 91//246 93//247 94//248
f 94//249 93//250 95//251 96//252
f 96//253 95//254 90//255 89//256
f 92//257 94//258 96//259 89//260
f 93//261 91//262 90//263 95//264
f 97//265 98//266 99//267 100//268
f 100//269 99//270 101//271 102//272
f 102//273 101//274 103//275 104//276
f 104//277 103//278 98//279 97//280
f 100//281 102//282 104//283 97//284
f 101//285 99//286 98//287 103//288
f 105//289 106//290 107//291 108//292
f 108//293 107//294 109//295 110//296
f 110//297 109//298 111//299 112//300
f 112//301 111//302 106//303 105//304
f 108//305 110//306 112//307 105//308
f 109//309 107//310 106//311 111//312
f 113//313 114//314 115//315 116//316
f 116//317 115//318 117//319 118//320
f 118//321 117//322 119//323 120//324
f 120//325 119//326 114//327 113//328
f 116//329 118//330 120//331 113//332
f 117//333 115//334 114//335 119//336
f 121//337 122//338 123//339 124//340
f 124//341 123//342 125//343 126//344
f 126//345 125//346 127//347 128//348
f 128//349 127//350 122//351 121//352
f 124//353 126//354 128//355 121//356
f 125//357 123//358 122//359 127//360
f 129//361 130//362 131//363 132//364
f 132//365 131//366 133//367 134//368
f 134//369 133//370 135//371 136//372
f 136//373 135//374 130//375 129//376
f 132//377 134//378 136//379 129//380
f 133//381 131//382 130//383 135//384
f 137//385 138//386 139//387 140//388
f 140//389 139//390 141//391 142//392
f 142//393 141//394 143//395 144//396
f 144//397 143//398 138//399 137//400
f 140//401 142//402 144//403 137//404
f 141//405 139//406 138//407 143//408
f 145//409 146//410 147//411 148//412
f 148//413 147//414 149//415 150//416
f 150//417 149//418 151//419 152//420
f 152//421 151//422 146//423 145//424
f 148//425 150//426 152//427 145//428
f 149//429 147//430 146//431 151//432
f 153//433 154//434 155//435 156//436
f 156//437 155//438 157//439 158//440
f 158//441 157//442 159//443 160//444
f 160//445 159//446 154//447 153//448
f 156//449 158//450 160//451 153//452
f 157//453 155//454 154//455 159//456
f 161//457 162//458 163//459 164//460
f 164//461 163//462 165//463 166//464
f 166//465 165//466 167//467 168//468
f 168//469 167//470 162//471 161//472
f 164//473 166//474 168//475 161//476
f 165//477 163//478 162//479 167//480
f 169//481 170//482 171//483 172//484
f 172//485 171//486 173//487 174//488
f 174//489 173//490 175//491 176//492
f 176//493 175//494 170//495 169//496
f 172//497 174//498 176//499 169//500
f 173//501 171//502 170//503 175//504
f 177//505 178//506 179//507 180//508
f 180//509 179//510 181//511 182//512
f 182//513 181//514 183//515 184//516
f 184//517 183//518 178//519 177//520
f 180//521 182//522 184//523 177//524
f 181//525 179//526 178//527 183//528
f 185//529 186//530 187//531 188//532
f 188//533 187//534 189//535 190//536
f 190//537 189//538 191//539 192//540
f 192//541 191//542 186//543 185//544
f 188//545 190//546 192//547 185//548
f 189//549 187//550 186//551 191//552
f 193//553 194//554 195//555 196//556
f 197//557 198//558 199//559 200//560
f 200//561 199//562 201//563 202//564
f 202//565 201//566 194//567 193//568
f 196//569 195//570 203//571 204//572
f 198//573 197//574 205//575 206//576
f 207//577 208//578 209//579 210//580
