# File exported by Houdini 17.5.173 (www.sidefx.com)
# 53 points
# 104 vertices
# 26 primitives
# Bounds: [-2.50000596, -1.01104701, -3.16729999] to [2.5, 5.23168802, 6.54483986]
g 
v 2.49999499 5.23168802 -3.16729999
v 2.49999404 4.01278591 0.458766997
v 2.49999499 4.88242483 -1.99426496
v 2.49999404 4.21343279 -0.407867998
v 2.49999499 4.46139622 -1.11740899
v -2.50000501 5.23168802 -3.16729999
v -2.50000501 4.01278591 0.458766997
v -2.50000501 4.88242483 -1.99426496
v -2.50000501 4.21343279 -0.407867998
v -2.50000501 4.46139622 -1.11740899
v -2.50000501 -0.00284199999 -0.000311000011
v 2.49999499 -0.00284199999 -0.000311000011
v 2.49999499 -0.00284299999 4.3327322
v -2.50000501 -0.00284299999 4.3327322
v -2.50000501 2.07586598 1.28036594
v -2.50000501 2.57555509 -0.000311000011
v -2.50000501 0.0128060002 4.31683302
v -2.50000596 0.429302007 3.63022804
v -2.49999905 -1.01104605 6.54483986
v -2.5000031 -0.820181012 5.68319416
v -2.50000405 -0.403687 5.02255678
v -2.50000501 1.10702097 2.67327595
v 2.49999404 2.07586598 1.28036594
v 2.49999404 2.57555509 -0.000311000011
v 2.49999404 0.0128060002 4.31683302
v 2.49999404 0.429302007 3.63022804
v 2.5 -1.01104701 6.54483986
v 2.49999595 -0.820182025 5.68319416
v 2.49999595 -0.403687 5.02255821
v 2.49999404 1.10702097 2.67327595
v 2.49999404 -0.00284199999 -0.000311999989
v 2.49999404 3.99715805 -0.000311000011
v -2.50000501 3.99715805 -0.000311000011
v -2.50000501 -0.00284199999 -0.000311000011
v -2.50000501 5.23168802 -3.16729903
v 2.49999499 5.23168802 -3.16729999
v -0.0503010005 5.23168802 -3.16729903
v -0.0503010005 -0.00284199999 -0.000311000011
v -0.0503010005 3.99715805 -0.000311000011
v -2.50000501 2.74344301 -0.000311000011
v 2.49999404 2.74344301 -0.000311000011
v -0.0503010005 2.74344301 -0.000311000011
v 2.49999404 3.70408201 -0.000311000011
v -2.50000501 3.70408201 -0.000311000011
v -0.0503010005 3.70408201 -0.000311000011
v 0.0745550022 3.65610504 -0.000311000011
v 0.0745550022 2.79141998 -0.000311000011
v 2.32484293 2.79141998 -0.000311000011
v 2.32484293 3.65610504 -0.000311000011
v -2.42544508 3.65610504 -0.000311000011
v -2.42544508 2.79141998 -0.000311000011
v -0.175156996 3.65610504 -0.000311000011
v -0.175156996 2.79141998 -0.000311000011
vn 0 0.958400011 0.285400003
vn 0 0.958400011 0.285400003
vn 0 0.958400011 0.285400003
vn 0 0.958400011 0.285400003
vn 0 0.97420001 0.225600004
vn 0 0.97420001 0.225600004
vn 0 0.97420001 0.225600004
vn 0 0.97420001 0.225600004
vn 0 0.901499987 0.432799995
vn 0 0.901499987 0.432799995
vn 0 0.901499987 0.432799995
vn 0 0.901499987 0.432799995
vn 0 0.944000006 0.329899997
vn 0 0.944000006 0.329899997
vn 0 0.944000006 0.329899997
vn 0 0.944000006 0.329899997
vn -0 -1 -0
vn -0 -1 -0
vn -0 -1 -0
vn -0 -1 -0
vn 0 0.818499982 0.574500024
vn 0 0.816100001 0.577899992
vn 0 0.816100001 0.577899992
vn 0 0.818499982 0.574500024
vn 0 0.855000019 0.518599987
vn -0 0.858099997 0.513499975
vn -0 0.858099997 0.513499975
vn 0 0.855000019 0.518599987
vn -0 0.858099997 0.513499975
vn -0 0.861199975 0.508300006
vn -0 0.861199975 0.508300006
vn -0 0.858099997 0.513499975
vn 0 0.845899999 0.533299983
vn 0 0.845899999 0.533299983
vn 0 0.845899999 0.533299983
vn 0 0.845899999 0.533299983
vn -0 0.931599975 0.363499999
vn -0 0.931599975 0.363499999
vn -0 0.931599975 0.363499999
vn -0 0.931599975 0.363499999
vn -0 0.820900023 0.57099998
vn 0 0.818499982 0.574500024
vn 0 0.818499982 0.574500024
vn -0 0.820900023 0.57099998
vn 0 0.976300001 0.216299996
vn 0 0.976300001 0.216299996
vn 0 0.976300001 0.216299996
vn 0 0.976300001 0.216299996
vn 0 -0 1
vn 0 -0 1
vn 0 -0 1
vn 0 -0 1
vn 0 -0 1
vn 0 -0 1
vn 0 -0 1
vn 0 -0 1
vn 0 -0 1
vn 0 -0 1
vn 0 -0 1
vn 0 -0 1
vn 0 0.931699991 0.363200009
vn 0 0.931699991 0.363200009
vn 0 0.931699991 0.363200009
vn 0 0.931699991 0.363200009
vn 0 0.931699991 0.363200009
vn 0 0.931699991 0.363200009
vn 0 0.931699991 0.363200009
vn 0 0.931699991 0.363200009
vn 0 -0 1
vn 0 -0 1
vn 0 -0 1
vn 0 -0 1
vn 0 -0 1
vn 0 -0 1
vn 0 -0 1
vn 0 -0 1
vn 0 -0 1
vn 0 -0 1
vn 0 -0 1
vn 0 -0 1
vn 0 -0 1
vn 0 -0 1
vn 0 -0 1
vn 0 -0 1
vn 0 -0 1
vn 0 -0 1
vn 0 -0 1
vn 0 -0 1
vn 0 -0 1
vn 0 -0 1
vn 0 -0 1
vn 0 -0 1
vn 0 -0 1
vn 0 -0 1
vn 0 -0 1
vn 0 -0 1
vn 0 -0 1
vn 0 -0 1
vn 0 -0 1
vn 0 -0 1
vn 0 -0 1
vn 0 -0 1
vn 0 -0 1
vn 0 -0 1
g 
f 3//1 1//2 6//3 8//4
f 4//5 9//6 7//7 2//8
f 5//9 3//10 8//11 10//12
f 5//13 10//14 9//15 4//16
f 13//17 14//18 11//19 12//20
f 22//21 18//22 26//23 30//24
f 18//25 17//26 25//27 26//28
f 17//29 21//30 29//31 25//32
f 21//33 20//34 28//35 29//36
f 16//37 15//38 23//39 24//40
f 15//41 22//42 30//43 23//44
f 20//45 19//46 27//47 28//48
f 41//49 43//50 49//51 48//52
f 44//53 40//54 51//55 50//56
f 45//57 39//58 33//59 44//60
f 39//61 32//62 36//63 37//64
f 33//65 39//66 37//67 35//68
f 43//69 32//70 39//71 45//72
f 31//73 41//74 42//75 38//76
f 38//77 42//78 40//79 34//80
f 45//81 44//82 50//83 52//84
f 42//85 41//86 48//87 47//88
f 43//89 45//90 46//91 49//92
f 45//93 42//94 47//95 46//96
f 40//97 42//98 53//99 51//100
f 42//101 45//102 52//103 53//104
