# File exported by Houdini 17.5.173 (www.sidefx.com)
# 100 points
# 376 vertices
# 94 primitives
# Bounds: [-2.96765208, -0.0966370031, -2.50180697] to [0.000807999982, 0.764814019, 2.50180602]
g 
v -0.20341 -0.0408530012 -2.50180602
v -0.20341 0.139559999 -2.50180602
v 0.000807999982 0.139559999 -2.50180602
v 0.000807999982 -0.0408530012 -2.50180602
v 0.000807999982 -0.0408530012 2.33377099
v 0.000807999982 0.139559999 2.33377099
v 0.000807999982 0.139559999 2.49819398
v 0.000807999982 -0.0408530012 2.49819398
v -2.76343489 -0.0408539996 2.49819303
v -2.76343489 0.139559001 2.49819303
v -2.96765208 0.139559001 2.49819303
v -2.96765208 -0.0408539996 2.49819303
v -2.96765208 -0.0408539996 -2.33738399
v -2.96765208 0.139559001 -2.33738399
v -2.96765208 0.139559001 -2.50180697
v -2.96765208 -0.0408539996 -2.50180697
v -2.96765208 -0.0966370031 2.49819303
v -2.76343489 -0.0966370031 2.49819303
v -2.76343489 0.139559001 -2.33738399
v -2.76343489 0.139559001 -2.50180697
v 0.000807999982 0.139559999 -2.33738399
v -0.20341 0.139559999 -2.33738399
v -2.76343489 -0.0408539996 2.33377004
v -0.20341 -0.0408530012 2.33377099
v -0.20341 -0.0966359973 2.33377099
v -2.76343489 -0.0966370031 2.33377004
v -2.76343489 -0.0408539996 -2.50180697
v -2.76343489 -0.0966370031 -2.50180697
v -2.96765208 -0.0966370031 -2.50180697
v -0.20341 0.139559999 2.49819398
v -0.20341 -0.0408530012 2.49819398
v -0.20341 -0.0966359973 2.49819398
v 0.000807999982 -0.0966359973 2.49819398
v -0.20341 -0.0408530012 -2.33738399
v -2.76343489 -0.0408539996 -2.33738399
v -2.76343489 -0.0966370031 -2.33738399
v -0.20341 -0.0966359973 -2.33738399
v 0.000807999982 -0.0408530012 -2.33738399
v 0.000807999982 -0.0966359973 2.33377099
v 0.000807999982 -0.0966359973 -2.33738399
v -0.20341 0.139559999 2.33377099
v -2.76343489 0.139559001 2.33377004
v -2.96765208 0.139559001 2.33377004
v -2.96765208 -0.0408539996 2.33377004
v -2.96765208 -0.0966370031 2.33377004
v -0.20341 -0.0966359973 -2.50180602
v 0.000807999982 -0.0966359973 -2.50180602
v -2.96765208 -0.0966370031 -2.33738399
v -2.96207905 0.66356802 -1.87217402
v -2.96207905 0.764814019 -1.87217402
v -2.96207905 0.764814019 -2.49702811
v -2.96207905 0.66356802 -2.49702811
v -2.86094594 0.764814019 -1.87695301
v -2.86094594 0.764814019 -2.50180697
v -2.86094594 0.66356802 -2.50180697
v -2.86094594 0.66356802 -1.87695301
v -2.86094594 0.139559001 -1.87695301
v -2.86094594 0.139559001 -2.50180697
v -2.86094689 0.764814019 2.49702692
v -2.86094689 0.66356802 2.49702692
v -2.86094689 0.66356802 1.87217402
v -2.86094689 0.764814019 1.87217402
v -2.86094689 0.66356802 1.24731898
v -2.86094689 0.764814019 1.24731898
v -2.86094689 0.66356802 0.622464001
v -2.86094689 0.764814019 0.622464001
v -2.86094594 0.66356802 -0.00239000004
v -2.86094689 0.764814019 -0.00239000004
v -2.86094594 0.66356802 -0.627243996
v -2.86094594 0.764814019 -0.627243996
v -2.86094594 0.66356802 -1.25209701
v -2.86094594 0.764814019 -1.25209796
v -2.96208 0.66356802 2.50180602
v -2.96208 0.66356802 1.87695301
v -2.96208 0.66356802 1.25209701
v -2.96207905 0.139559001 1.25209701
v -2.96207905 0.139559001 1.87695301
v -2.96208 0.66356802 0.627242982
v -2.86094594 0.139559001 1.87217402
v -2.96207905 0.66356802 0.00238900003
v -2.96207905 0.66356802 -0.622465014
v -2.86094594 0.139559001 1.24731898
v -2.96207905 0.66356802 -1.24731898
v -2.96208 0.764814019 2.50180602
v -2.96208 0.764814019 1.87695098
v -2.96208 0.764814019 1.25209701
v -2.96208 0.764814019 0.627242982
v -2.96208 0.764814019 0.00238900003
v -2.96207905 0.764814019 -0.622465014
v -2.96207905 0.764814019 -1.24731898
v -2.96207905 0.139559001 -1.87217402
v -2.96207905 0.139559001 -2.49702811
v -2.86094594 0.139559001 0.622464001
v -2.96207905 0.139559001 0.627242982
v -2.96207905 0.139559001 0.00238900003
v -2.86094594 0.139559001 -0.00239000004
v -2.86094594 0.139559001 -0.627243996
v -2.96207905 0.139559001 -0.622465014
v -2.96207905 0.139559001 -1.24731898
v -2.86094594 0.139559001 -1.25209701
vn 0 0 -1
vn 0 0 -1
vn 0 0 -1
vn 0 0 -1
vn 1 0 0
vn 1 0 0
vn 1 0 0
vn 1 0 0
vn -0 -0 1
vn -0 -0 1
vn -0 -0 1
vn -0 -0 1
vn -1 -0 -0
vn -1 -0 -0
vn -1 -0 -0
vn -1 -0 -0
vn -0 -0 1
vn -0 -0 1
vn -0 -0 1
vn -0 -0 1
vn -0 1 0
vn -0 1 0
vn -0 1 0
vn -0 1 0
vn -0 1 0
vn -0 1 0
vn -0 1 0
vn -0 1 0
vn -0 1 0
vn -0 1 0
vn -0 1 0
vn -0 1 0
vn 0 0 -1
vn 0 0 -1
vn 0 0 -1
vn 0 0 -1
vn 0 0 -1
vn 0 0 -1
vn 0 0 -1
vn 0 0 -1
vn -0 -0 1
vn -0 -0 1
vn -0 -0 1
vn -0 -0 1
vn -0 -0 1
vn -0 -0 1
vn -0 -0 1
vn -0 -0 1
vn 0 0 -1
vn 0 0 -1
vn 0 0 -1
vn 0 0 -1
vn 0 0 -1
vn 0 0 -1
vn 0 0 -1
vn 0 0 -1
vn -0 -0 1
vn -0 -0 1
vn -0 -0 1
vn -0 -0 1
vn 0 -1 0
vn 0 -1 0
vn 0 -1 0
vn 0 -1 0
vn -0 -0 1
vn -0 -0 1
vn -0 -0 1
vn -0 -0 1
vn 1 0 0
vn 1 0 0
vn 1 0 0
vn 1 0 0
vn -0 1 0
vn -0 1 0
vn -0 1 0
vn -0 1 0
vn -0 1 0
vn -0 1 0
vn -0 1 0
vn -0 1 0
vn -0 1 0
vn -0 1 0
vn -0 1 0
vn -0 1 0
vn -0 1 0
vn -0 1 0
vn -0 1 0
vn -0 1 0
vn -0 1 0
vn -0 1 0
vn -0 1 0
vn -0 1 0
vn -0 1 0
vn -0 1 0
vn -0 1 0
vn -0 1 0
vn 1 0 0
vn 1 0 0
vn 1 0 0
vn 1 0 0
vn 1 0 0
vn 1 0 0
vn 1 0 0
vn 1 0 0
vn -1 -0 -0
vn -1 -0 -0
vn -1 -0 -0
vn -1 -0 -0
vn -1 -0 -0
vn -1 -0 -0
vn -1 -0 -0
vn -1 -0 -0
vn 1 0 0
vn 1 0 0
vn 1 0 0
vn 1 0 0
vn 1 0 0
vn 1 0 0
vn 1 0 0
vn 1 0 0
vn 0 -1 0
vn 0 -1 0
vn 0 -1 0
vn 0 -1 0
vn 0 -1 0
vn 0 -1 0
vn 0 -1 0
vn 0 -1 0
vn 0 -1 0
vn 0 -1 0
vn 0 -1 0
vn 0 -1 0
vn 0 -1 0
vn 0 -1 0
vn 0 -1 0
vn 0 -1 0
vn 0 -1 0
vn 0 -1 0
vn 0 -1 0
vn 0 -1 0
vn 0 -1 0
vn 0 -1 0
vn 0 -1 0
vn 0 -1 0
vn 0 -1 0
vn 0 -1 0
vn 0 -1 0
vn 0 -1 0
vn 0 -1 0
vn 0 -1 0
vn 0 -1 0
vn 0 -1 0
vn -0 -0 1
vn -0 -0 1
vn -0 -0 1
vn -0 -0 1
vn -1 -0 -0
vn -1 -0 -0
vn -1 -0 -0
vn -1 -0 -0
vn -1 -0 -0
vn -1 -0 -0
vn -1 -0 -0
vn -1 -0 -0
vn -1 -0 -0
vn -1 -0 -0
vn -1 -0 -0
vn -1 -0 -0
vn 1 0 0
vn 1 0 0
vn 1 0 0
vn 1 0 0
vn -1 -0 -0
vn -1 -0 -0
vn -1 -0 -0
vn -1 -0 -0
vn 0 0 -1
vn 0 0 -1
vn 0 0 -1
vn 0 0 -1
vn 0 0 -1
vn 0 0 -1
vn 0 0 -1
vn 0 0 -1
vn -1 -0 -0
vn -1 -0 -0
vn -1 -0 -0
vn -1 -0 -0
vn -0 1 0
vn -0 1 0
vn -0 1 0
vn -0 1 0
vn 1 0 0
vn 1 0 0
vn 1 0 0
vn 1 0 0
vn 1 0 0
vn 1 0 0
vn 1 0 0
vn 1 0 0
vn 1 0 0
vn 1 0 0
vn 1 0 0
vn 1 0 0
vn 1 0 0
vn 1 0 0
vn 1 0 0
vn 1 0 0
vn 1 0 0
vn 1 0 0
vn 1 0 0
vn 1 0 0
vn 1 0 0
vn 1 0 0
vn 1 0 0
vn 1 0 0
vn 1 0 0
vn 1 0 0
vn 1 0 0
vn 1 0 0
vn 1 0 0
vn 1 0 0
vn 1 0 0
vn 1 0 0
vn 1 0 0
vn 1 0 0
vn 1 0 0
vn 1 0 0
vn 0 -1 0
vn 0 -1 0
vn 0 -1 0
vn 0 -1 0
vn -1 -0 -0
vn -1 -0 -0
vn -1 -0 -0
vn -1 -0 -0
vn 0 -1 0
vn 0 -1 0
vn 0 -1 0
vn 0 -1 0
vn 0.0472000018 0 0.998899996
vn 0.0472000018 0 0.998899996
vn 0.0472000018 0 0.998899996
vn 0.0472000018 0 0.998899996
vn 0 -1 0
vn 0 -1 0
vn 0 -1 0
vn 0 -1 0
vn 1 0 0
vn 1 0 0
vn 1 0 0
vn 1 0 0
vn 0 -1 0
vn 0 -1 0
vn 0 -1 0
vn 0 -1 0
vn -0 1 0
vn -0 1 0
vn -0 1 0
vn -0 1 0
vn -0 1 0
vn -0 1 0
vn -0 1 0
vn -0 1 0
vn -0 1 0
vn -0 1 0
vn -0 1 0
vn -0 1 0
vn -0 1 0
vn -0 1 0
vn -0 1 0
vn -0 1 0
vn -0 1 0
vn -0 1 0
vn -0 1 0
vn -0 1 0
vn -0 1 0
vn -0 1 0
vn -0 1 0
vn -0 1 0
vn -0 1 0
vn -0 1 0
vn -0 1 0
vn -0 1 0
vn -1 -0 -0
vn -1 -0 -0
vn -1 -0 -0
vn -1 -0 -0
vn -1 -0 -0
vn -1 -0 -0
vn -1 -0 -0
vn -1 -0 -0
vn -1 -0 -0
vn -1 -0 -0
vn -1 -0 -0
vn -1 -0 -0
vn -1 -0 -0
vn -1 -0 -0
vn -1 -0 -0
vn -1 -0 -0
vn -1 -0 -0
vn -1 -0 -0
vn -1 -0 -0
vn -1 -0 -0
vn -1 -0 -0
vn -1 -0 -0
vn -1 -0 -0
vn -1 -0 -0
vn -1 -0 -0
vn -1 -0 -0
vn -1 -0 -0
vn -1 -0 -0
vn 0 -1 0
vn 0 -1 0
vn 0 -1 0
vn 0 -1 0
vn 0 -1 0
vn 0 -1 0
vn 0 -1 0
vn 0 -1 0
vn 0 -1 0
vn 0 -1 0
vn 0 -1 0
vn 0 -1 0
vn 0 -1 0
vn 0 -1 0
vn 0 -1 0
vn 0 -1 0
vn -0.0472000018 -0 -0.998899996
vn -0.0472000018 -0 -0.998899996
vn -0.0472000018 -0 -0.998899996
vn -0.0472000018 -0 -0.998899996
vn -0.0472000018 -0 -0.998899996
vn -0.0472000018 -0 -0.998899996
vn -0.0472000018 -0 -0.998899996
vn -0.0472000018 -0 -0.998899996
vn -1 -0 -0
vn -1 -0 -0
vn -1 -0 -0
vn -1 -0 -0
vn 0.0472000018 0 0.998899996
vn 0.0472000018 0 0.998899996
vn 0.0472000018 0 0.998899996
vn 0.0472000018 0 0.998899996
vn 1 0 0
vn 1 0 0
vn 1 0 0
vn 1 0 0
vn -0.0472000018 -0 -0.998899996
vn -0.0472000018 -0 -0.998899996
vn -0.0472000018 -0 -0.998899996
vn -0.0472000018 -0 -0.998899996
vn -1 -0 -0
vn -1 -0 -0
vn -1 -0 -0
vn -1 -0 -0
vn 0.0472000018 0 0.998899996
vn 0.0472000018 0 0.998899996
vn 0.0472000018 0 0.998899996
vn 0.0472000018 0 0.998899996
vn 1 0 0
vn 1 0 0
vn 1 0 0
vn 1 0 0
vn -0.0472000018 -0 -0.998899996
vn -0.0472000018 -0 -0.998899996
vn -0.0472000018 -0 -0.998899996
vn -0.0472000018 -0 -0.998899996
vn -1 -0 -0
vn -1 -0 -0
vn -1 -0 -0
vn -1 -0 -0
vn 0.0472000018 0 0.998899996
vn 0.0472000018 0 0.998899996
vn 0.0472000018 0 0.998899996
vn 0.0472000018 0 0.998899996
g 
f 1//1 2//2 3//3 4//4
f 5//5 6//6 7//7 8//8
f 9//9 10//10 11//11 12//12
f 13//13 14//14 15//15 16//16
f 9//17 12//18 17//19 18//20
f 19//21 20//22 15//23 14//24
f 21//25 3//26 2//27 22//28
f 22//29 2//30 20//31 19//32
f 23//33 24//34 25//35 26//36
f 16//37 27//38 28//39 29//40
f 8//41 7//42 30//43 31//44
f 31//45 30//46 10//47 9//48
f 16//49 15//50 20//51 27//52
f 27//53 20//54 2//55 1//56
f 8//57 31//58 32//59 33//60
f 34//61 24//62 23//63 35//64
f 34//65 35//66 36//67 37//68
f 38//69 5//70 39//71 40//72
f 30//73 41//74 42//75 10//76
f 41//77 22//78 19//79 42//80
f 7//81 6//82 41//83 30//84
f 6//85 21//86 22//87 41//88
f 10//89 42//90 43//91 11//92
f 42//93 19//94 14//95 43//96
f 35//97 23//98 26//99 36//100
f 5//101 8//102 33//103 39//104
f 12//105 11//106 43//107 44//108
f 44//109 43//110 14//111 13//112
f 4//113 3//114 21//115 38//116
f 38//117 21//118 6//119 5//120
f 26//121 18//122 17//123 45//124
f 39//125 33//126 32//127 25//128
f 25//129 32//130 18//131 26//132
f 46//133 37//134 36//135 28//136
f 47//137 40//138 37//139 46//140
f 40//141 39//142 25//143 37//144
f 28//145 36//146 48//147 29//148
f 36//149 26//150 45//151 48//152
f 31//153 9//154 18//155 32//156
f 13//157 16//158 29//159 48//160
f 12//161 44//162 45//163 17//164
f 44//165 13//166 48//167 45//168
f 4//169 38//170 40//171 47//172
f 24//173 34//174 37//175 25//176
f 1//177 4//178 47//179 46//180
f 27//181 1//182 46//183 28//184
f 49//185 50//186 51//187 52//188
f 50//189 53//190 54//191 51//192
f 55//193 56//194 57//195 58//196
f 53//197 56//198 55//199 54//200
f 59//201 60//202 61//203 62//204
f 62//205 61//206 63//207 64//208
f 64//209 63//210 65//211 66//212
f 66//213 65//214 67//215 68//216
f 68//217 67//218 69//219 70//220
f 70//221 69//222 71//223 72//224
f 72//225 71//226 56//227 53//228
f 60//229 73//230 74//231 61//232
f 74//233 75//234 76//235 77//236
f 63//237 75//238 78//239 65//240
f 61//241 74//242 77//243 79//244
f 67//245 80//246 81//247 69//248
f 63//249 61//250 79//251 82//252
f 71//253 83//254 49//255 56//256
f 84//257 59//258 62//259 85//260
f 85//261 62//262 64//263 86//264
f 86//265 64//266 66//267 87//268
f 87//269 66//270 68//271 88//272
f 88//273 68//274 70//275 89//276
f 89//277 70//278 72//279 90//280
f 90//281 72//282 53//283 50//284
f 73//285 84//286 85//287 74//288
f 74//289 85//290 86//291 75//292
f 75//293 86//294 87//295 78//296
f 78//297 87//298 88//299 80//300
f 80//301 88//302 89//303 81//304
f 81//305 89//306 90//307 83//308
f 83//309 90//310 50//311 49//312
f 57//313 91//314 92//315 58//316
f 79//317 77//318 76//319 82//320
f 93//321 94//322 95//323 96//324
f 97//325 98//326 99//327 100//328
f 75//329 63//330 82//331 76//332
f 52//333 55//334 58//335 92//336
f 49//337 52//338 92//339 91//340
f 65//341 78//342 94//343 93//344
f 71//345 69//346 97//347 100//348
f 80//349 67//350 96//351 95//352
f 81//353 83//354 99//355 98//356
f 69//357 81//358 98//359 97//360
f 67//361 65//362 93//363 96//364
f 83//365 71//366 100//367 99//368
f 78//369 80//370 95//371 94//372
f 56//373 49//374 91//375 57//376
