# File exported by Houdini 17.5.173 (www.sidefx.com)
# 16 points
# 56 vertices
# 14 primitives
# Bounds: [-2.5, -0.290879011, -2.5] to [2.5, 0, 2.5]
g 
v -2.5 0 2.5
v 2.5 0 2.5
v -2.5 0 -2.5
v 2.5 0 -2.5
v -2.5 -0.290879011 -2.5
v -2.5 -0.290879011 2.5
v 2.5 -0.290879011 2.5
v 2.5 -0.290879011 -2.5
v -2.22876501 -0.290879011 -2.22876501
v -2.22876501 -0.290879011 2.22876501
v 2.22876501 -0.290879011 2.22876501
v 2.22876501 -0.290879011 -2.22876501
v -2.22876501 -0.033160001 -2.22876501
v -2.22876501 -0.033160001 2.22876501
v 2.22876501 -0.033160001 2.22876501
v 2.22876501 -0.033160001 -2.22876501
vn 0 1 0
vn 0 1 0
vn 0 1 0
vn 0 1 0
vn 0 -1 0
vn 0 -1 0
vn 0 -1 0
vn 0 -1 0
vn 1 0 0
vn 1 0 0
vn 1 0 0
vn 1 0 0
vn -1 0 0
vn -1 0 0
vn -1 0 0
vn -1 0 0
vn 0 0 -1
vn 0 0 -1
vn 0 0 -1
vn 0 0 -1
vn 0 0 1
vn 0 0 1
vn 0 0 1
vn 0 0 1
vn 0 0 1
vn 0 0 1
vn 0 0 1
vn 0 0 1
vn 0 -1 0
vn 0 -1 0
vn 0 -1 0
vn 0 -1 0
vn 0 -1 0
vn 0 -1 0
vn 0 -1 0
vn 0 -1 0
vn 0 -1 0
vn 0 -1 0
vn 0 -1 0
vn 0 -1 0
vn 0 -1 0
vn 0 -1 0
vn 0 -1 0
vn 0 -1 0
vn 0 0 -1
vn 0 0 -1
vn 0 0 -1
vn 0 0 -1
vn -1 0 0
vn -1 0 0
vn -1 0 0
vn -1 0 0
vn 1 0 0
vn 1 0 0
vn 1 0 0
vn 1 0 0
g 
f 1//1 2//2 4//3 3//4
f 7//5 11//6 12//7 8//8
f 2//9 7//10 8//11 4//12
f 3//13 5//14 6//15 1//16
f 4//17 8//18 5//19 3//20
f 1//21 6//22 7//23 2//24
f 12//25 16//26 13//27 9//28
f 5//29 9//30 10//31 6//32
f 8//33 12//34 9//35 5//36
f 6//37 10//38 11//39 7//40
f 14//41 13//42 16//43 15//44
f 10//45 14//46 15//47 11//48
f 11//49 15//50 16//51 12//52
f 9//53 13//54 14//55 10//56
