# File exported by Houdini 17.5.173 (www.sidefx.com)
# 28 points
# 68 vertices
# 17 primitives
# Bounds: [-2.5, -0.940240979, -2.5] to [-0, -0, 0.00288100005]
g 
v -2.5 -0.940240979 0.00288100005
v -2.5 -0.756808996 0.00288100005
v -2.5 -0.580425978 0.00288100005
v -2.5 -0.352694005 -0.0415190011
v -2.5 -0.164589003 -0.168227002
v -2.5 -0.0443990007 -0.359589994
v -2.5 -0 -0.577546
v -2.5 -0 -0.753929019
v -2.5 -0 -0.931538999
v -0 -0.940240979 0.00288100005
v -0 -0.756808996 0.00288100005
v -0 -0.580425978 0.00288100005
v -0.0443999991 -0.352694005 -0.0415190011
v -0.362471998 -0.0443990007 -0.359589994
v -0.580426991 -0 -0.577546
v -0.756810009 0 -0.753929019
v -0.93441999 0 -0.931538999
v -0.171108007 -0.164589003 -0.168227002
v -0 -0.940240979 -2.5
v -0 -0.756808996 -2.5
v -0 -0.580425978 -2.5
v -0.0443999991 -0.352694005 -2.5
v -0.171108007 -0.164589003 -2.5
v -0.362471998 -0.0443990007 -2.5
v -0.580428004 -0 -2.5
v -0.756810009 -0 -2.5
v -0.934421003 -0 -2.5
v -2.5 -0 -2.5
vn -0 0.558700025 0.829400003
vn -0 0.558700025 0.829400003
vn -0 0.558700025 0.829400003
vn -0 0.558700025 0.829400003
vn -0 1 0
vn -0 1 0
vn -0 1 0
vn -0 1 0
vn -0 1 0
vn -0 1 0
vn -0 1 0
vn -0 1 0
vn -0 0.979900002 0.199599996
vn -0 0.979900002 0.199599996
vn -0 0.979900002 0.199599996
vn -0 0.979900002 0.199599996
vn -0 0.191400006 0.98150003
vn -0 0.191400006 0.98150003
vn -0 0.191400006 0.98150003
vn -0 0.191400006 0.98150003
vn -0 0 1
vn -0 0 1
vn -0 0 1
vn -0 0 1
vn -0 0 1
vn -0 0 1
vn -0 0 1
vn -0 0 1
vn -0 0.846800029 0.531899989
vn -0 0.846800029 0.531899989
vn -0 0.846800029 0.531899989
vn -0 0.846800029 0.531899989
vn 0.531899989 0.846800029 -0
vn 0.531899989 0.846800029 -0
vn 0.531899989 0.846800029 -0
vn 0.531899989 0.846800029 -0
vn 1 0 -0
vn 1 0 -0
vn 1 0 -0
vn 1 0 -0
vn 1 0 -0
vn 1 0 -0
vn 1 0 -0
vn 1 0 -0
vn 0.98150003 0.191400006 -0
vn 0.98150003 0.191400006 -0
vn 0.98150003 0.191400006 -0
vn 0.98150003 0.191400006 -0
vn 0.199599996 0.979900002 -0
vn 0.199599996 0.979900002 -0
vn 0.199599996 0.979900002 -0
vn 0.199599996 0.979900002 -0
vn -0 1 0
vn -0 1 0
vn -0 1 0
vn -0 1 0
vn -0 1 0
vn -0 1 0
vn -0 1 0
vn -0 1 0
vn 0.829400003 0.558700025 -0
vn 0.829400003 0.558700025 -0
vn 0.829400003 0.558700025 -0
vn 0.829400003 0.558700025 -0
vn -0 1 0
vn -0 1 0
vn -0 1 0
vn -0 1 0
g 
f 13//1 18//2 5//3 4//4
f 8//5 16//6 17//7 9//8
f 7//9 15//10 16//11 8//12
f 6//13 14//14 15//15 7//16
f 3//17 12//18 13//19 4//20
f 2//21 11//22 12//23 3//24
f 1//25 10//26 11//27 2//28
f 6//29 5//30 18//31 14//32
f 14//33 18//34 23//35 24//36
f 10//37 19//38 20//39 11//40
f 11//41 20//42 21//43 12//44
f 12//45 21//46 22//47 13//48
f 14//49 24//50 25//51 15//52
f 15//53 25//54 26//55 16//56
f 16//57 26//58 27//59 17//60
f 22//61 23//62 18//63 13//64
f 9//65 17//66 27//67 28//68
