# File exported by Houdini 17.5.173 (www.sidefx.com)
# 20 points
# 34 vertices
# 8 primitives
# Bounds: [-2.5, -0.940240979, -2.5] to [2.5, -0, 0.00288100005]
g 
v -2.5 -0.940240979 0.00288100005
v 2.5 -0.940240979 0.00288100005
v -2.5 -0.756808996 0.00288100005
v 2.5 -0.756808996 0.00288100005
v -2.5 -0.580425978 0.00288100005
v 2.5 -0.580425978 0.00288100005
v -2.5 -0.352694005 -0.0415190011
v 2.5 -0.352694005 -0.0415190011
v -2.5 -0.164589003 -0.168227002
v 2.5 -0.164589003 -0.168227002
v -2.5 -0.0443999991 -0.359589994
v 2.5 -0.0443990007 -0.359589994
v -2.5 -0 -0.577546
v 2.5 -0 -0.577546
v -2.5 -0 -0.753929019
v 2.5 -0 -0.753929019
v -2.5 -0 -0.931538999
v 2.5 -0 -0.931538999
v -2.5 -0 -2.5
v 2.5 -0 -2.5
vn -0 0.718100011 0.69599998
vn -0 0.718100011 0.69599998
vn -0 0.718100011 0.69599998
vn -0 0.718100011 0.69599998
vn -0 0.718100011 0.69599998
vn -0 0.718100011 0.69599998
vn -0 0 1
vn -0 0 1
vn -0 0 1
vn -0 0 1
vn -0 0 1
vn -0 0 1
vn -0 0 1
vn -0 0 1
vn -0 0.191400006 0.98150003
vn -0 0.191400006 0.98150003
vn -0 0.191400006 0.98150003
vn -0 0.191400006 0.98150003
vn -0 0.979900002 0.199599996
vn -0 0.979900002 0.199599996
vn -0 0.979900002 0.199599996
vn -0 0.979900002 0.199599996
vn -0 1 0
vn -0 1 0
vn -0 1 0
vn -0 1 0
vn -0 1 0
vn -0 1 0
vn -0 1 0
vn -0 1 0
vn -0 1 0
vn -0 1 0
vn -0 1 0
vn -0 1 0
g 
f 7//1 8//2 10//3 12//4 11//5 9//6
f 1//7 2//8 4//9 3//10
f 3//11 4//12 6//13 5//14
f 5//15 6//16 8//17 7//18
f 11//19 12//20 14//21 13//22
f 13//23 14//24 16//25 15//26
f 15//27 16//28 18//29 17//30
f 17//31 18//32 20//33 19//34
