# File exported by Houdini 17.5.173 (www.sidefx.com)
# 48 points
# 184 vertices
# 46 primitives
# Bounds: [-2.5, -0.166870996, -2.5] to [2.5, 0.0902059972, 2.5]
g 
v -2.5 -0.0902059972 -2.45793009
v -2.5 0.0902059972 -2.45793009
v -2.5 0.0902059972 -2.5
v -2.5 -0.0902059972 -2.5
v 2.45793009 -0.0902059972 -2.5
v 2.45793009 0.0902059972 -2.5
v 2.5 0.0902059972 -2.5
v 2.5 -0.0902059972 -2.5
v 2.5 -0.0902059972 2.45815492
v 2.5 0.0902059972 2.45815492
v 2.5 0.0902059972 2.5
v 2.5 -0.0902059972 2.5
v -2.45815492 -0.0902059972 2.5
v -2.45815492 0.0902059972 2.5
v -2.5 0.0902059972 2.5
v -2.5 -0.0902059972 2.5
v 2.5 -0.166870996 2.5
v 2.5 -0.166870996 2.45815492
v -2.33557796 0.0902059972 2.32853007
v -2.5 0.0902059972 2.45815492
v -2.45815492 0.0902059972 -2.5
v -2.33557796 0.0902059972 -2.32853007
v 2.45793009 -0.0902059972 2.45815492
v 2.45793009 -0.0902059972 -2.45793009
v 2.45793009 -0.166869998 -2.45793009
v 2.45793009 -0.166870996 2.45815492
v -2.5 -0.0902059972 2.45815492
v -2.5 -0.166870996 2.45815492
v -2.5 -0.166870996 2.5
v 2.5 0.0902059972 -2.45793009
v 2.5 -0.0902059972 -2.45793009
v 2.5 -0.166869998 -2.45793009
v 2.5 -0.166869998 -2.5
v -2.45815492 -0.0902059972 -2.45793009
v -2.45815492 -0.0902059972 2.45815492
v -2.45815492 -0.166870996 2.45815492
v -2.45815492 -0.166869998 -2.45793009
v -2.45815492 -0.0902059972 -2.5
v 2.45793009 -0.166869998 -2.5
v -2.45815492 -0.166869998 -2.5
v 2.33557796 0.0902059972 -2.32853007
v 2.33557796 0.0902059972 2.32853007
v 2.45793009 0.0902059972 2.5
v 2.45793009 -0.0902059972 2.5
v 2.45793009 -0.166870996 2.5
v -2.5 -0.166869998 -2.45793009
v -2.5 -0.166869998 -2.5
v -2.45815492 -0.166870996 2.5
vn -1 0 0
vn -1 0 0
vn -1 0 0
vn -1 0 0
vn 0 0 -1
vn 0 0 -1
vn 0 0 -1
vn 0 0 -1
vn 1 0 0
vn 1 0 0
vn 1 0 0
vn 1 0 0
vn 0 0 1
vn 0 0 1
vn 0 0 1
vn 0 0 1
vn 1 0 0
vn 1 0 0
vn 1 0 0
vn 1 0 0
vn 0 1 0
vn 0 1 0
vn 0 1 0
vn 0 1 0
vn 0 1 0
vn 0 1 0
vn 0 1 0
vn 0 1 0
vn 0 1 0
vn 0 1 0
vn 0 1 0
vn 0 1 0
vn -1 0 0
vn -1 0 0
vn -1 0 0
vn -1 0 0
vn -1 0 0
vn -1 0 0
vn -1 0 0
vn -1 0 0
vn 1 0 0
vn 1 0 0
vn 1 0 0
vn 1 0 0
vn 1 0 0
vn 1 0 0
vn 1 0 0
vn 1 0 0
vn -1 0 0
vn -1 0 0
vn -1 0 0
vn -1 0 0
vn -1 0 0
vn -1 0 0
vn -1 0 0
vn -1 0 0
vn 1 0 0
vn 1 0 0
vn 1 0 0
vn 1 0 0
vn 0 -1 -0
vn 0 -1 -0
vn 0 -1 -0
vn 0 -1 -0
vn 1 0 0
vn 1 0 0
vn 1 0 0
vn 1 0 0
vn 0 0 -1
vn 0 0 -1
vn 0 0 -1
vn 0 0 -1
vn 0 1 0
vn 0 1 0
vn 0 1 0
vn 0 1 0
vn 0 1 0
vn 0 1 0
vn 0 1 0
vn 0 1 0
vn 0 1 0
vn 0 1 0
vn 0 1 0
vn 0 1 0
vn 0 1 0
vn 0 1 0
vn 0 1 0
vn 0 1 0
vn 0 1 0
vn 0 1 0
vn 0 1 0
vn 0 1 0
vn 0 1 0
vn 0 1 0
vn 0 1 0
vn 0 1 0
vn 0 0 -1
vn 0 0 -1
vn 0 0 -1
vn 0 0 -1
vn 0 0 -1
vn 0 0 -1
vn 0 0 -1
vn 0 0 -1
vn 0 0 1
vn 0 0 1
vn 0 0 1
vn 0 0 1
vn 0 0 1
vn 0 0 1
vn 0 0 1
vn 0 0 1
vn 0 0 -1
vn 0 0 -1
vn 0 0 -1
vn 0 0 -1
vn 0 0 -1
vn 0 0 -1
vn 0 0 -1
vn 0 0 -1
vn 0 -1 -0
vn 0 -1 -0
vn 0 -1 -0
vn 0 -1 -0
vn 0 -1 -0
vn 0 -1 -0
vn 0 -1 -0
vn 0 -1 -0
vn 0 -1 -0
vn 0 -1 -0
vn 0 -1 -0
vn 0 -1 -0
vn 0 -1 -0
vn 0 -1 -0
vn 0 -1 -0
vn 0 -1 -0
vn 0 -1 -0
vn 0 -1 -0
vn 0 -1 -0
vn 0 -1 -0
vn 0 -1 -0
vn 0 -1 -0
vn 0 -1 -0
vn 0 -1 -0
vn 0 -1 -0
vn 0 -1 -0
vn 0 -1 -0
vn 0 -1 -0
vn 0 -1 -0
vn 0 -1 -0
vn 0 -1 -0
vn 0 -1 -0
vn 1 0 0
vn 1 0 0
vn 1 0 0
vn 1 0 0
vn 0 0 1
vn 0 0 1
vn 0 0 1
vn 0 0 1
vn 0 0 1
vn 0 0 1
vn 0 0 1
vn 0 0 1
vn 0 0 1
vn 0 0 1
vn 0 0 1
vn 0 0 1
vn 0 0 -1
vn 0 0 -1
vn 0 0 -1
vn 0 0 -1
vn 0 0 1
vn 0 0 1
vn 0 0 1
vn 0 0 1
vn -1 0 0
vn -1 0 0
vn -1 0 0
vn -1 0 0
vn -1 0 0
vn -1 0 0
vn -1 0 0
vn -1 0 0
g 
f 1//1 2//2 3//3 4//4
f 5//5 6//6 7//7 8//8
f 9//9 10//10 11//11 12//12
f 13//13 14//14 15//15 16//16
f 9//17 12//18 17//19 18//20
f 19//21 20//22 15//23 14//24
f 21//25 3//26 2//27 22//28
f 22//29 2//30 20//31 19//32
f 23//33 24//34 25//35 26//36
f 16//37 27//38 28//39 29//40
f 8//41 7//42 30//43 31//44
f 31//45 30//46 10//47 9//48
f 16//49 15//50 20//51 27//52
f 27//53 20//54 2//55 1//56
f 8//57 31//58 32//59 33//60
f 34//61 24//62 23//63 35//64
f 34//65 35//66 36//67 37//68
f 38//69 5//70 39//71 40//72
f 30//73 41//74 42//75 10//76
f 41//77 22//78 19//79 42//80
f 7//81 6//82 41//83 30//84
f 6//85 21//86 22//87 41//88
f 10//89 42//90 43//91 11//92
f 42//93 19//94 14//95 43//96
f 35//97 23//98 26//99 36//100
f 5//101 8//102 33//103 39//104
f 12//105 11//106 43//107 44//108
f 44//109 43//110 14//111 13//112
f 4//113 3//114 21//115 38//116
f 38//117 21//118 6//119 5//120
f 26//121 18//122 17//123 45//124
f 39//125 33//126 32//127 25//128
f 25//129 32//130 18//131 26//132
f 46//133 37//134 36//135 28//136
f 47//137 40//138 37//139 46//140
f 40//141 39//142 25//143 37//144
f 28//145 36//146 48//147 29//148
f 36//149 26//150 45//151 48//152
f 31//153 9//154 18//155 32//156
f 13//157 16//158 29//159 48//160
f 12//161 44//162 45//163 17//164
f 44//165 13//166 48//167 45//168
f 4//169 38//170 40//171 47//172
f 24//173 34//174 37//175 25//176
f 1//177 4//178 47//179 46//180
f 27//181 1//182 46//183 28//184
